<?xml version="1.0" encoding="UTF-8"?>
<!DOCTYPE svg PUBLIC "-//W3C//DTD SVG 1.1//EN" "http://www.w3.org/Graphics/SVG/1.1/DTD/svg11.dtd">
<!-- Creator: CorelDRAW -->
<svg xmlns="http://www.w3.org/2000/svg" xml:space="preserve" width="6.82666in" height="6.82666in" style="shape-rendering:geometricPrecision; text-rendering:geometricPrecision; image-rendering:optimizeQuality; fill-rule:evenodd; clip-rule:evenodd"
viewBox="0 0 6.82666 6.82666"
 xmlns:xlink="http://www.w3.org/1999/xlink">
 <defs>
  <style type="text/css">
   <![CDATA[
    .fil2 {fill:none}
    .fil0 {fill:#424242}
    .fil1 {fill:#FFFFFE;fill-rule:nonzero}
   ]]>
  </style>
 </defs>
 <rect class="fil0" width="6.82666" height="6.82666"/>
 <g id="Layer_x0020_1">
  <metadata id="CorelCorpID_0Corel-Layer"/>
  <g id="_350717688">
   <path id="_350717784" class="fil1" d="M1.06746 1.96637l1.11304 0 0.111307 0 0 0.111307 0 1.3442 -1.33566 0 0 -1.3442 0 -0.111307 0.111307 0zm1.22435 1.67812l0 2.21753 0 0.111307 -0.111307 0 -1.11304 0 -0.111307 0 0 -0.111307 0 -2.21753 1.33566 0z"/>
   <path id="_350717736" class="fil1" d="M2.85681 0.853331l1.11304 0 0.111307 0 0 0.111307 0 1.3442 -1.33566 0 0 -1.3442 0 -0.111307 0.111307 0zm1.22435 1.67813l0 3.33055 0 0.111307 -0.111307 0 -1.11304 0 -0.111307 0 0 -0.111307 0 -3.33055 1.33566 0z"/>
   <path id="_350718120" class="fil1" d="M4.64616 1.96637l1.11304 0 0.111307 0 0 0.111307 0 1.3442 -1.33566 0 0 -1.3442 0 -0.111307 0.111307 0zm1.22435 1.67812l0 2.21753 0 0.111307 -0.111307 0 -1.11304 0 -0.111307 0 0 -0.111307 0 -2.21753 1.33566 0z"/>
  </g>
 </g>
 <rect class="fil2" width="6.82666" height="6.82666"/>
</svg>
