<?xml version="1.0" encoding="UTF-8"?>
<!DOCTYPE svg PUBLIC "-//W3C//DTD SVG 1.1//EN" "http://www.w3.org/Graphics/SVG/1.1/DTD/svg11.dtd">
<!-- Creator: CorelDRAW -->
<svg xmlns="http://www.w3.org/2000/svg" xml:space="preserve" width="6.82666in" height="6.82666in" style="shape-rendering:geometricPrecision; text-rendering:geometricPrecision; image-rendering:optimizeQuality; fill-rule:evenodd; clip-rule:evenodd"
viewBox="0 0 6.82666 6.82666"
 xmlns:xlink="http://www.w3.org/1999/xlink">
 <defs>
  <style type="text/css">
   <![CDATA[
    .fil2 {fill:none}
    .fil0 {fill:#424242}
    .fil1 {fill:#FFFFFE;fill-rule:nonzero}
   ]]>
  </style>
 </defs>
 <rect class="fil0" width="6.82666" height="6.82666"/>
 <g id="Layer_x0020_1">
  <metadata id="CorelCorpID_0Corel-Layer"/>
  <g id="_350719080">
   <path id="_350718480" class="fil1" d="M2.30419 1.89019l-0.916031 0 0 1.03176 0.916031 -0.436213 0 -0.595543zm-0.916031 1.21353l0 0.95526 0.916031 -0.436213 0 -0.955256 -0.916031 0.436209zm0 1.13703l0 0.95526 0.916031 -0.436209 0 -0.95526 -0.916031 0.436209zm0 1.13703l0 0.595551 0.916031 0 0 -1.03176 -0.916031 0.436205z"/>
   <path id="_350718936" class="fil1" d="M3.79626 0.853331l-0.916031 0 0 1.29376 0.916031 -0.54698 0 -0.746776zm-0.916031 1.52169l0 1.19783 0.916031 -0.54698 0 -1.19783 -0.916031 0.54698zm0 1.42577l0 1.19783 0.916031 -0.54698 0 -1.19783 -0.916031 0.54698zm0 1.42576l0 0.746783 0.916031 0 0 -1.29376 -0.916031 0.546972z"/>
   <path id="_350718744" class="fil1" d="M5.4385 1.89019l-0.916028 0 0 1.03176 0.916028 -0.436213 0 -0.595543zm-0.916028 1.21353l0 0.95526 0.916028 -0.436213 0 -0.955256 -0.916028 0.436209zm0 1.13703l0 0.95526 0.916028 -0.436209 0 -0.95526 -0.916028 0.436209zm0 1.13703l0 0.595551 0.916028 0 0 -1.03176 -0.916028 0.436205z"/>
  </g>
 </g>
 <rect class="fil2" width="6.82666" height="6.82666"/>
</svg>
