<?xml version="1.0" encoding="UTF-8"?>
<!DOCTYPE svg PUBLIC "-//W3C//DTD SVG 1.1//EN" "http://www.w3.org/Graphics/SVG/1.1/DTD/svg11.dtd">
<!-- Creator: CorelDRAW -->
<svg xmlns="http://www.w3.org/2000/svg" xml:space="preserve" width="6.82666in" height="6.82666in" style="shape-rendering:geometricPrecision; text-rendering:geometricPrecision; image-rendering:optimizeQuality; fill-rule:evenodd; clip-rule:evenodd"
viewBox="0 0 6.82666 6.82666"
 xmlns:xlink="http://www.w3.org/1999/xlink">
 <defs>
  <style type="text/css">
   <![CDATA[
    .fil3 {fill:none}
    .fil0 {fill:#424242}
    .fil1 {fill:#FFFFFE}
    .fil2 {fill:#FFFFFE;fill-rule:nonzero}
   ]]>
  </style>
 </defs>
 <rect class="fil0" width="6.82666" height="6.82666"/>
 <g id="Layer_x0020_1">
  <metadata id="CorelCorpID_0Corel-Layer"/>
  <polygon class="fil1" points="1.18667,5.41179 5.98666,5.41179 5.98666,5.75846 0.839996,5.75846 0.839996,1.06821 1.18667,1.06821 "/>
  <polygon class="fil2" points="1.30233,1.91658 2.55752,1.91658 2.55752,2.12992 1.30233,2.12992 "/>
  <polygon class="fil2" points="1.30233,2.48713 3.01395,2.48713 3.01395,2.70046 1.30233,2.70046 "/>
  <polygon class="fil2" points="1.30233,3.05767 3.40454,3.05767 3.40454,3.27101 1.30233,3.27101 "/>
  <polygon class="fil2" points="1.30233,3.62822 4.04093,3.62822 4.04093,3.84156 1.30233,3.84156 "/>
  <polygon class="fil2" points="1.30233,4.19877 4.38326,4.19877 4.38326,4.41211 1.30233,4.41211 "/>
  <polygon class="fil2" points="1.30233,4.76932 5.06791,4.76932 5.06791,4.98266 1.30233,4.98266 "/>
 </g>
 <rect class="fil3" width="6.82666" height="6.82666"/>
</svg>
