<?xml version="1.0" encoding="UTF-8"?>
<!DOCTYPE svg PUBLIC "-//W3C//DTD SVG 1.1//EN" "http://www.w3.org/Graphics/SVG/1.1/DTD/svg11.dtd">
<!-- Creator: CorelDRAW -->
<svg xmlns="http://www.w3.org/2000/svg" xml:space="preserve" width="6.82666in" height="6.82666in" style="shape-rendering:geometricPrecision; text-rendering:geometricPrecision; image-rendering:optimizeQuality; fill-rule:evenodd; clip-rule:evenodd"
viewBox="0 0 6.82666 6.82666"
 xmlns:xlink="http://www.w3.org/1999/xlink">
 <defs>
  <style type="text/css">
   <![CDATA[
    .fil3 {fill:none}
    .fil0 {fill:#424242}
    .fil1 {fill:#FFFFFE}
    .fil2 {fill:#FFFFFE;fill-rule:nonzero}
   ]]>
  </style>
 </defs>
 <rect class="fil0" width="6.82666" height="6.82666"/>
 <g id="Layer_x0020_1">
  <metadata id="CorelCorpID_0Corel-Layer"/>
  <g id="_350722920">
   <polygon id="_350722872" class="fil1" points="1.22813,5.59791 5.97333,5.59791 5.97333,5.97354 0.853331,5.97354 0.853331,5.78572 0.853343,0.853126 1.22815,0.853126 "/>
   <g>
    <path id="_350722320" class="fil1" d="M4.60659 5.36396l0 -2.8238 0.37563 0 0 2.8238 -0.37563 0zm-2.69926 0l0 -1.391 0.375626 0 0 1.391 -0.375626 0zm0.674815 0l0 -1.58204 0.37563 0 0 1.58204 -0.37563 0zm0.674815 0l0 -1.96412 0.37563 0 0 1.96412 -0.37563 0zm0.674819 0l0 -2.44172 0.375626 0 0 2.44172 -0.375626 0z"/>
    <polygon id="_350722464" class="fil2" points="5.77265,1.29536 5.38456,1.99296 5.29605,2.15206 5.20251,1.99584 5.08949,1.80709 1.6697,3.78151 1.483,3.45662 4.89697,1.48556 4.79242,1.31096 4.69896,1.15488 4.88098,1.15197 5.67915,1.13926 5.8611,1.13636 "/>
   </g>
  </g>
 </g>
 <rect class="fil3" width="6.82666" height="6.82666"/>
</svg>
