<?xml version="1.0" encoding="UTF-8"?>
<!DOCTYPE svg PUBLIC "-//W3C//DTD SVG 1.1//EN" "http://www.w3.org/Graphics/SVG/1.1/DTD/svg11.dtd">
<!-- Creator: CorelDRAW -->
<svg xmlns="http://www.w3.org/2000/svg" xml:space="preserve" width="6.82666in" height="6.82666in" style="shape-rendering:geometricPrecision; text-rendering:geometricPrecision; image-rendering:optimizeQuality; fill-rule:evenodd; clip-rule:evenodd"
viewBox="0 0 6.82666 6.82666"
 xmlns:xlink="http://www.w3.org/1999/xlink">
 <defs>
  <style type="text/css">
   <![CDATA[
    .fil2 {fill:none}
    .fil0 {fill:#424242}
    .fil1 {fill:#FFFFFE}
   ]]>
  </style>
 </defs>
 <rect class="fil0" width="6.82666" height="6.82666"/>
 <g id="Layer_x0020_1">
  <metadata id="CorelCorpID_0Corel-Layer"/>
  <g id="_350723760">
   <g>
    <path id="_350724432" class="fil1" d="M4.90608 5.38553l0 -2.92572 0.372244 0 0 2.92572 -0.372244 0zm-3.40628 0l0 -1.54269 0.372244 0 0 1.54269 -0.372244 0zm0.851567 0l0 -1.63379 0.372244 0 0 1.63379 -0.372244 0zm0.851567 0l0 -1.88606 0.372248 0 0 1.88606 -0.372248 0zm0.851571 0l0 -2.17539 0.372244 0 0 2.17539 -0.372244 0z"/>
    <path id="_350723064" class="fil1" d="M1.05402 3.33919c0.79463,-0.0328031 1.59451,-0.189272 2.32393,-0.512063 0.627886,-0.277862 1.18583,-0.672154 1.6355,-1.19107l-0.231307 -0.228661 -0.128429 -0.126957 0.174181 -0.047748 0.971531 -0.266319 0.173913 -0.0476732 -0.045685 0.174512 -0.25513 0.974528 -0.0457244 0.174657 -0.128256 -0.126791 -0.220429 -0.217909c-0.482953,0.55148 -1.07943,0.972319 -1.75026,1.26919 -0.772126,0.341693 -1.6172,0.50872 -2.4585,0.543453l-0.0815551 0.00336614 -0.0153465 -0.371138 0.0815709 -0.00337008z"/>
   </g>
   <polygon id="_350723472" class="fil1" points="0.853331,5.55028 5.86884,5.55028 5.86884,5.90798 0.853331,5.90798 "/>
  </g>
 </g>
 <rect class="fil2" width="6.82666" height="6.82666"/>
</svg>
