<?xml version="1.0" encoding="UTF-8"?>
<!DOCTYPE svg PUBLIC "-//W3C//DTD SVG 1.1//EN" "http://www.w3.org/Graphics/SVG/1.1/DTD/svg11.dtd">
<!-- Creator: CorelDRAW -->
<svg xmlns="http://www.w3.org/2000/svg" xml:space="preserve" width="6.82666in" height="6.82666in" style="shape-rendering:geometricPrecision; text-rendering:geometricPrecision; image-rendering:optimizeQuality; fill-rule:evenodd; clip-rule:evenodd"
viewBox="0 0 6.82666 6.82666"
 xmlns:xlink="http://www.w3.org/1999/xlink">
 <defs>
  <style type="text/css">
   <![CDATA[
    .fil2 {fill:none}
    .fil0 {fill:#424242}
    .fil1 {fill:#FFFFFE}
   ]]>
  </style>
 </defs>
 <rect class="fil0" width="6.82666" height="6.82666"/>
 <g id="Layer_x0020_1">
  <metadata id="CorelCorpID_0Corel-Layer"/>
  <g id="_350724576">
   <polygon id="_350724792" class="fil1" points="0.853331,3.25186 5.97333,3.25186 5.97333,3.63535 0.853331,3.63535 "/>
   <g>
    <path id="_350725176" class="fil1" d="M5.22821 4.84303l0 -1.02938 0.383496 0 0 1.02938 -0.383496 0zm-1.29178 1.07648l0 -2.10586 0.383496 0 0 2.10586 -0.383496 0zm0.696917 -0.538236l0 -1.56762 0.383496 0 0 1.56762 -0.383496 0z"/>
    <path id="_350724192" class="fil1" d="M1.59845 1.98363l0 1.02938 -0.383496 0 0 -1.02938 0.383496 0zm1.29178 -1.07648l0 2.10586 -0.383496 0 0 -2.10586 0.383496 0zm-0.696917 0.538236l0 1.56762 -0.383496 0 0 -1.56762 0.383496 0z"/>
   </g>
  </g>
 </g>
 <rect class="fil2" width="6.82666" height="6.82666"/>
</svg>
