<?xml version="1.0" encoding="UTF-8"?>
<!DOCTYPE svg PUBLIC "-//W3C//DTD SVG 1.1//EN" "http://www.w3.org/Graphics/SVG/1.1/DTD/svg11.dtd">
<!-- Creator: CorelDRAW -->
<svg xmlns="http://www.w3.org/2000/svg" xml:space="preserve" width="6.82666in" height="6.82666in" style="shape-rendering:geometricPrecision; text-rendering:geometricPrecision; image-rendering:optimizeQuality; fill-rule:evenodd; clip-rule:evenodd"
viewBox="0 0 6.82666 6.82666"
 xmlns:xlink="http://www.w3.org/1999/xlink">
 <defs>
  <style type="text/css">
   <![CDATA[
    .fil3 {fill:none}
    .fil0 {fill:#424242}
    .fil2 {fill:#FFFFFE}
    .fil1 {fill:#FFFFFE;fill-rule:nonzero}
   ]]>
  </style>
 </defs>
 <rect class="fil0" width="6.82666" height="6.82666"/>
 <g id="Layer_x0020_1">
  <metadata id="CorelCorpID_0Corel-Layer"/>
  <polygon class="fil1" points="5.01333,1.06666 5.8487,1.06666 5.97333,1.06666 5.97333,1.1913 5.97333,1.36749 5.97664,1.371 5.97333,1.37411 5.97333,2.01648 5.64089,1.68756 3.69668,3.52066 2.84837,2.67235 1.00708,4.05333 0.779579,3.75 2.88461,2.17123 3.70482,2.99144 5.37096,1.4205 "/>
  <path class="fil2" d="M5.55876 2.28353l0 3.26472 -0.38 0 0 -3.26472 0.38 0zm-2.38313 0.875728l0 2.389 -0.38 0 0 -2.389 0.38 0zm-0.834094 0.434992l0 1.954 -0.38 0 0 -1.954 0.38 0zm-0.834098 0.476626l0 1.47738 -0.38 0 0 -1.47738 0.38 0zm2.50229 -0.238311l0 1.71569 -0.38 0 0 -1.71569 0.38 0zm0.83411 -0.595783l0 2.31147 -0.38 0 0 -2.31147 0.38 0z"/>
 </g>
 <rect class="fil3" width="6.82666" height="6.82666"/>
</svg>
