<?xml version="1.0" encoding="UTF-8"?>
<!DOCTYPE svg PUBLIC "-//W3C//DTD SVG 1.1//EN" "http://www.w3.org/Graphics/SVG/1.1/DTD/svg11.dtd">
<!-- Creator: CorelDRAW -->
<svg xmlns="http://www.w3.org/2000/svg" xml:space="preserve" width="6.82666in" height="6.82666in" style="shape-rendering:geometricPrecision; text-rendering:geometricPrecision; image-rendering:optimizeQuality; fill-rule:evenodd; clip-rule:evenodd"
viewBox="0 0 6.82666 6.82666"
 xmlns:xlink="http://www.w3.org/1999/xlink">
 <defs>
  <style type="text/css">
   <![CDATA[
    .fil3 {fill:none}
    .fil0 {fill:#424242}
    .fil2 {fill:#FFFFFE}
    .fil1 {fill:#FFFFFE;fill-rule:nonzero}
   ]]>
  </style>
 </defs>
 <rect class="fil0" width="6.82666" height="6.82666"/>
 <g id="Layer_x0020_1">
  <metadata id="CorelCorpID_0Corel-Layer"/>
  <g id="_350726496">
   <g>
    <path id="_350728032" class="fil1" d="M3.9294 3.78294c0.18713,0 0.358575,0.0217953 0.484461,0.0570315 0.159839,0.0447362 0.258705,0.119409 0.258705,0.213394 0,0.0939803 -0.0988661,0.168657 -0.258705,0.21339 -0.125886,0.0352362 -0.297331,0.0570315 -0.484461,0.0570315 -0.187134,0 -0.358575,-0.0217953 -0.484461,-0.0570315 -0.159839,-0.0447323 -0.258705,-0.119409 -0.258705,-0.21339 0,-0.0939843 0.0988661,-0.168657 0.258705,-0.213394 0.125886,-0.0352362 0.297327,-0.0570315 0.484461,-0.0570315z"/>
    <path id="_350728128" class="fil1" d="M4.61178 4.26716c0.0392323,0.034374 0.0607835,0.0740354 0.0607835,0.117906 0,0.0939843 -0.0988661,0.168657 -0.258705,0.21339 -0.125886,0.0352362 -0.297331,0.0570315 -0.484461,0.0570315 -0.187134,0 -0.358575,-0.0217953 -0.484461,-0.0570315 -0.159839,-0.0447323 -0.258705,-0.119406 -0.258705,-0.21339 0,-0.0438701 0.0215472,-0.0835315 0.0607795,-0.117906 0.0537205,0.0323307 0.115685,0.055815 0.173441,0.0719803 0.159142,0.0445394 0.343008,0.0603819 0.508945,0.0603819 0.165933,0 0.349803,-0.0158386 0.508945,-0.0603819 0.0577559,-0.0161654 0.119717,-0.0396457 0.173437,-0.0719803z"/>
    <path id="_350726928" class="fil1" d="M4.61178 4.58661c0.0392323,0.034374 0.0607835,0.0740315 0.0607835,0.117902 0,0.0939843 -0.0988661,0.168657 -0.258705,0.21339 -0.125886,0.0352362 -0.297331,0.0570315 -0.484461,0.0570315 -0.187134,0 -0.358575,-0.0217953 -0.484461,-0.0570315 -0.159839,-0.0447323 -0.258705,-0.119406 -0.258705,-0.21339 0,-0.0438701 0.0215472,-0.0835276 0.0607795,-0.117902 0.0537205,0.0323307 0.115685,0.055811 0.173441,0.0719764 0.159142,0.0445394 0.343008,0.0603819 0.508945,0.0603819 0.165933,0 0.349803,-0.0158386 0.508945,-0.0603819 0.0577559,-0.0161654 0.119717,-0.0396457 0.173437,-0.0719764z"/>
    <path id="_350727096" class="fil1" d="M4.61178 4.90606c0.0392323,0.034374 0.0607835,0.0740315 0.0607835,0.117902 0,0.0939843 -0.0988661,0.168657 -0.258705,0.21339 -0.125886,0.0352362 -0.297331,0.0570354 -0.484461,0.0570354 -0.187134,0 -0.358575,-0.0217992 -0.484461,-0.0570354 -0.159839,-0.0447323 -0.258705,-0.119406 -0.258705,-0.21339 0,-0.0438701 0.0215472,-0.0835276 0.0607795,-0.117902 0.0537205,0.0323307 0.115685,0.055811 0.173441,0.0719764 0.159142,0.0445433 0.343008,0.0603819 0.508945,0.0603819 0.165933,0 0.349803,-0.0158346 0.508945,-0.0603819 0.0577559,-0.0161654 0.119717,-0.0396417 0.173437,-0.0719764z"/>
    <path id="_350727480" class="fil1" d="M4.61178 5.22551c0.0392323,0.034374 0.0607835,0.0740315 0.0607835,0.117906 0,0.0939803 -0.0988661,0.168654 -0.258705,0.21339 -0.125886,0.0352362 -0.297331,0.0570315 -0.484461,0.0570315 -0.187134,0 -0.358575,-0.0217953 -0.484461,-0.0570315 -0.159839,-0.0447362 -0.258705,-0.119409 -0.258705,-0.21339 0,-0.043874 0.0215472,-0.0835315 0.0607795,-0.117906 0.0537205,0.0323307 0.115685,0.055811 0.173441,0.0719803 0.159142,0.0445394 0.343008,0.0603819 0.508945,0.0603819 0.165933,0 0.349803,-0.0158386 0.508945,-0.0603819 0.0577559,-0.0161693 0.119717,-0.0396457 0.173437,-0.0719803z"/>
    <path id="_350727456" class="fil1" d="M4.61178 5.54496c0.0392323,0.034374 0.0607835,0.0740354 0.0607835,0.117906 0,0.0939803 -0.0988661,0.168654 -0.258705,0.21339 -0.125886,0.0352362 -0.297331,0.0570315 -0.484461,0.0570315 -0.187134,0 -0.358575,-0.0217953 -0.484461,-0.0570315 -0.159839,-0.0447362 -0.258705,-0.119409 -0.258705,-0.21339 0,-0.0438701 0.0215472,-0.0835315 0.0607795,-0.117906 0.0537205,0.0323307 0.115685,0.055811 0.173441,0.0719803 0.159142,0.0445394 0.343008,0.0603819 0.508945,0.0603819 0.165933,0 0.349803,-0.0158386 0.508945,-0.0603819 0.0577559,-0.0161693 0.119717,-0.0396457 0.173437,-0.0719803z"/>
   </g>
   <g>
    <g>
     <polygon id="_350727648" class="fil2" points="3.81594,3.04645 5.60185,0.938815 5.8909,1.18343 3.86688,3.57206 3.72334,3.45752 2.94089,2.83308 1.55311,4.36326 1.27222,4.10883 2.89923,2.31487 "/>
     <polygon id="_350726424" class="fil1" points="5.00251,0.991508 5.87623,0.893378 5.97333,1.75784 "/>
    </g>
    <g>
     <path id="_350726808" class="fil1" d="M1.5965 4.42183c0.18713,0 0.358575,0.0217992 0.484461,0.0570354 0.159835,0.0447362 0.258701,0.119409 0.258701,0.213394 0,0.0939803 -0.0988661,0.168654 -0.258701,0.21339 -0.125886,0.0352362 -0.297331,0.0570315 -0.484461,0.0570315 -0.187138,0 -0.358579,-0.0217953 -0.484465,-0.0570315 -0.159839,-0.0447362 -0.258705,-0.119409 -0.258705,-0.21339 0,-0.0939843 0.0988661,-0.168657 0.258705,-0.213394 0.125886,-0.0352362 0.297327,-0.0570354 0.484465,-0.0570354z"/>
     <path id="_350726784" class="fil1" d="M2.27888 4.90606c0.0392323,0.034374 0.0607795,0.0740354 0.0607795,0.117906 0,0.0939803 -0.0988661,0.168657 -0.258701,0.21339 -0.125886,0.0352362 -0.297331,0.0570315 -0.484461,0.0570315 -0.187138,0 -0.358579,-0.0217953 -0.484465,-0.0570315 -0.159839,-0.0447323 -0.258705,-0.119409 -0.258705,-0.21339 0,-0.0438701 0.0215472,-0.0835315 0.0607795,-0.117906 0.0537244,0.0323307 0.115689,0.055811 0.173445,0.0719803 0.159138,0.0445394 0.343004,0.0603819 0.508945,0.0603819 0.165933,0 0.349803,-0.0158386 0.508941,-0.0603819 0.0577559,-0.0161693 0.11972,-0.0396457 0.173441,-0.0719803z"/>
     <path id="_350726664" class="fil1" d="M2.27888 5.22551c0.0392323,0.034374 0.0607795,0.0740354 0.0607795,0.117906 0,0.0939843 -0.0988661,0.168657 -0.258701,0.21339 -0.125886,0.0352362 -0.297331,0.0570315 -0.484461,0.0570315 -0.187138,0 -0.358579,-0.0217953 -0.484465,-0.0570315 -0.159839,-0.0447323 -0.258705,-0.119406 -0.258705,-0.21339 0,-0.0438701 0.0215472,-0.0835315 0.0607795,-0.117906 0.0537244,0.0323307 0.115689,0.055815 0.173445,0.0719803 0.159138,0.0445394 0.343004,0.0603819 0.508945,0.0603819 0.165933,0 0.349803,-0.0158386 0.508941,-0.0603819 0.0577559,-0.0161654 0.11972,-0.0396457 0.173441,-0.0719803z"/>
     <path id="_350726400" class="fil1" d="M2.27888 5.54496c0.0392323,0.0343701 0.0607795,0.0740315 0.0607795,0.117902 0,0.0939843 -0.0988661,0.168657 -0.258701,0.21339 -0.125886,0.0352362 -0.297331,0.0570315 -0.484461,0.0570315 -0.187138,0 -0.358579,-0.0217953 -0.484465,-0.0570315 -0.159839,-0.0447323 -0.258705,-0.119406 -0.258705,-0.21339 0,-0.0438701 0.0215472,-0.0835315 0.0607795,-0.117902 0.0537244,0.0323268 0.115689,0.055811 0.173445,0.0719764 0.159138,0.0445394 0.343004,0.0603819 0.508945,0.0603819 0.165933,0 0.349803,-0.0158386 0.508941,-0.0603819 0.0577559,-0.0161654 0.11972,-0.0396457 0.173441,-0.0719764z"/>
    </g>
   </g>
  </g>
 </g>
 <rect class="fil3" width="6.82666" height="6.82666"/>
</svg>
