<?xml version="1.0" encoding="UTF-8"?>
<!DOCTYPE svg PUBLIC "-//W3C//DTD SVG 1.1//EN" "http://www.w3.org/Graphics/SVG/1.1/DTD/svg11.dtd">
<!-- Creator: CorelDRAW -->
<svg xmlns="http://www.w3.org/2000/svg" xml:space="preserve" width="6.82666in" height="6.82666in" style="shape-rendering:geometricPrecision; text-rendering:geometricPrecision; image-rendering:optimizeQuality; fill-rule:evenodd; clip-rule:evenodd"
viewBox="0 0 6.82666 6.82666"
 xmlns:xlink="http://www.w3.org/1999/xlink">
 <defs>
  <style type="text/css">
   <![CDATA[
    .fil3 {fill:none}
    .fil0 {fill:#424242}
    .fil1 {fill:#FFFFFE}
    .fil2 {fill:#FFFFFE;fill-rule:nonzero}
   ]]>
  </style>
 </defs>
 <rect class="fil0" width="6.82666" height="6.82666"/>
 <g id="Layer_x0020_1">
  <metadata id="CorelCorpID_0Corel-Layer"/>
  <polygon class="fil1" points="1.25667,5.57 5.95,5.57 5.95,5.95 0.876665,5.95 0.876665,0.876665 1.25667,0.876665 "/>
  <path class="fil2" d="M3.62667 4.63999c0.0736299,0 0.140299,0.0298543 0.188555,0.0781142 0.0482598,0.0482559 0.0781142,0.114929 0.0781142,0.188551 0,0.0736299 -0.0298543,0.140299 -0.0781142,0.188555 -0.0482559,0.0482598 -0.114925,0.0781142 -0.188555,0.0781142 -0.073622,0 -0.140295,-0.0298543 -0.188551,-0.0781142 -0.0482598,-0.0482559 -0.0781142,-0.114925 -0.0781142,-0.188555 0,-0.073622 0.0298543,-0.140295 0.0781142,-0.188551 0.0482559,-0.0482598 0.114929,-0.0781142 0.188551,-0.0781142z"/>
  <path class="fil2" d="M3.57333 3.41333c0.0736299,0 0.140299,0.0298543 0.188555,0.0781142 0.0482598,0.0482559 0.0781142,0.114929 0.0781142,0.188551 0,0.0736299 -0.0298543,0.140299 -0.0781142,0.188555 -0.0482559,0.0482598 -0.114925,0.0781142 -0.188555,0.0781142 -0.073622,0 -0.140295,-0.0298543 -0.188551,-0.0781142 -0.0482598,-0.0482559 -0.0781142,-0.114925 -0.0781142,-0.188555 0,-0.073622 0.0298543,-0.140295 0.0781142,-0.188551 0.0482559,-0.0482598 0.114929,-0.0781142 0.188551,-0.0781142z"/>
  <path class="fil2" d="M2.34667 2.82666c0.0736299,0 0.140299,0.0298543 0.188555,0.0781142 0.0482598,0.0482559 0.0781142,0.114929 0.0781142,0.188551 0,0.0736299 -0.0298543,0.140299 -0.0781142,0.188555 -0.0482559,0.0482598 -0.114925,0.0781142 -0.188555,0.0781142 -0.073622,0 -0.140295,-0.0298543 -0.188551,-0.0781142 -0.0482598,-0.0482559 -0.0781142,-0.114925 -0.0781142,-0.188555 0,-0.073622 0.0298543,-0.140295 0.0781142,-0.188551 0.0482559,-0.0482598 0.114929,-0.0781142 0.188551,-0.0781142z"/>
  <path class="fil2" d="M2.50667 3.73332c0.0736299,0 0.140299,0.0298543 0.188555,0.0781142 0.0482598,0.0482559 0.0781142,0.114929 0.0781142,0.188551 0,0.0736299 -0.0298543,0.140299 -0.0781142,0.188555 -0.0482559,0.0482598 -0.114925,0.0781142 -0.188555,0.0781142 -0.073622,0 -0.140295,-0.0298543 -0.188551,-0.0781142 -0.0482598,-0.0482559 -0.0781142,-0.114925 -0.0781142,-0.188555 0,-0.073622 0.0298543,-0.140295 0.0781142,-0.188551 0.0482559,-0.0482598 0.114929,-0.0781142 0.188551,-0.0781142z"/>
  <path class="fil2" d="M2.88 1.75999c0.0736299,0 0.140299,0.0298543 0.188555,0.0781142 0.0482598,0.0482559 0.0781142,0.114929 0.0781142,0.188551 0,0.0736299 -0.0298543,0.140299 -0.0781142,0.188555 -0.0482559,0.0482598 -0.114925,0.0781142 -0.188555,0.0781142 -0.073622,0 -0.140295,-0.0298543 -0.188551,-0.0781142 -0.0482598,-0.0482559 -0.0781142,-0.114925 -0.0781142,-0.188555 0,-0.073622 0.0298543,-0.140295 0.0781142,-0.188551 0.0482559,-0.0482598 0.114929,-0.0781142 0.188551,-0.0781142z"/>
  <path class="fil2" d="M4.87811 3.86477c0.0736299,0 0.140299,0.0298543 0.188555,0.0781142 0.0482598,0.0482559 0.0781142,0.114929 0.0781142,0.188551 0,0.0736299 -0.0298543,0.140299 -0.0781142,0.188555 -0.0482559,0.0482598 -0.114925,0.0781142 -0.188555,0.0781142 -0.073622,0 -0.140295,-0.0298543 -0.188551,-0.0781142 -0.0482598,-0.0482559 -0.0781142,-0.114925 -0.0781142,-0.188555 0,-0.073622 0.0298543,-0.140295 0.0781142,-0.188551 0.0482559,-0.0482598 0.114929,-0.0781142 0.188551,-0.0781142z"/>
  <path class="fil2" d="M1.92 1.65333c0.0736299,0 0.140299,0.0298543 0.188555,0.0781142 0.0482598,0.0482559 0.0781142,0.114929 0.0781142,0.188551 0,0.0736299 -0.0298543,0.140299 -0.0781142,0.188555 -0.0482559,0.0482598 -0.114925,0.0781142 -0.188555,0.0781142 -0.073622,0 -0.140295,-0.0298543 -0.188551,-0.0781142 -0.0482598,-0.0482559 -0.0781142,-0.114925 -0.0781142,-0.188555 0,-0.073622 0.0298543,-0.140295 0.0781142,-0.188551 0.0482559,-0.0482598 0.114929,-0.0781142 0.188551,-0.0781142z"/>
 </g>
 <rect class="fil3" width="6.82666" height="6.82666"/>
</svg>
