<?xml version="1.0" encoding="UTF-8"?>
<!DOCTYPE svg PUBLIC "-//W3C//DTD SVG 1.1//EN" "http://www.w3.org/Graphics/SVG/1.1/DTD/svg11.dtd">
<!-- Creator: CorelDRAW -->
<svg xmlns="http://www.w3.org/2000/svg" xml:space="preserve" width="6.82666in" height="6.82666in" style="shape-rendering:geometricPrecision; text-rendering:geometricPrecision; image-rendering:optimizeQuality; fill-rule:evenodd; clip-rule:evenodd"
viewBox="0 0 6.82666 6.82666"
 xmlns:xlink="http://www.w3.org/1999/xlink">
 <defs>
  <style type="text/css">
   <![CDATA[
    .fil3 {fill:none}
    .fil0 {fill:#424242}
    .fil2 {fill:#FFFFFE}
    .fil1 {fill:#FFFFFE;fill-rule:nonzero}
   ]]>
  </style>
 </defs>
 <rect class="fil0" width="6.82666" height="6.82666"/>
 <g id="Layer_x0020_1">
  <metadata id="CorelCorpID_0Corel-Layer"/>
  <polygon class="fil1" points="4.48,4.16 4.48,4.58666 4.69333,4.58666 4.69333,4.83967 4.48,4.83967 4.48,5.33333 4.05333,5.33333 4.05333,4.83967 3.84,4.83967 3.84,4.58666 4.05333,4.58666 4.05333,4.16 "/>
  <polygon class="fil2" points="1.25667,5.57 5.95,5.57 5.95,5.95 0.876665,5.95 0.876665,0.876665 1.25667,0.876665 "/>
  <polygon class="fil1" points="2.66667,3.30666 2.66667,3.73333 2.88,3.73333 2.88,3.98633 2.66667,3.98633 2.66667,4.48 2.24,4.48 2.24,3.98633 2.02667,3.98633 2.02667,3.73333 2.24,3.73333 2.24,3.30666 "/>
  <polygon class="fil1" points="4.05333,2.45333 4.05333,2.87999 4.26667,2.87999 4.26667,3.133 4.05333,3.133 4.05333,3.62666 3.62666,3.62666 3.62666,3.133 3.41333,3.133 3.41333,2.87999 3.62666,2.87999 3.62666,2.45333 "/>
  <polygon class="fil1" points="2.24,1.49333 2.24,1.91999 2.45334,1.91999 2.45334,2.173 2.24,2.173 2.24,2.66666 1.81333,2.66666 1.81333,2.173 1.6,2.173 1.6,1.91999 1.81333,1.91999 1.81333,1.49333 "/>
 </g>
 <rect class="fil3" width="6.82666" height="6.82666"/>
</svg>
