<?xml version="1.0" encoding="UTF-8"?>
<!DOCTYPE svg PUBLIC "-//W3C//DTD SVG 1.1//EN" "http://www.w3.org/Graphics/SVG/1.1/DTD/svg11.dtd">
<!-- Creator: CorelDRAW -->
<svg xmlns="http://www.w3.org/2000/svg" xml:space="preserve" width="6.82666in" height="6.82666in" style="shape-rendering:geometricPrecision; text-rendering:geometricPrecision; image-rendering:optimizeQuality; fill-rule:evenodd; clip-rule:evenodd"
viewBox="0 0 6.82666 6.82666"
 xmlns:xlink="http://www.w3.org/1999/xlink">
 <defs>
  <style type="text/css">
   <![CDATA[
    .fil2 {fill:none}
    .fil0 {fill:#424242}
    .fil1 {fill:#FFFFFE}
   ]]>
  </style>
 </defs>
 <rect class="fil0" width="6.82666" height="6.82666"/>
 <g id="Layer_x0020_1">
  <metadata id="CorelCorpID_0Corel-Layer"/>
  <path class="fil1" d="M2.73505 4.54663c0.00968898,-0.00706693 0.0230906,-0.0319764 0.027311,-0.0406732 0.022622,-0.0466575 0.0371063,-0.104378 0.0479134,-0.154862 0.0193858,-0.0905394 0.0312165,-0.184252 0.0404173,-0.276327 0.0135827,-0.135854 0.0211614,-0.272748 0.0262165,-0.409161 0.00729921,-0.197059 0.0318937,-0.62361 0.317472,-0.613031 0.0892441,0.00330315 0.165362,0.0564291 0.228075,0.115634 0.0686181,0.0647795 0.129291,0.142752 0.188031,0.216543 0.0457835,0.0575079 0.211496,0.272272 0.284819,0.292697 0.0203228,-0.0143898 0.0481535,-0.0788898 0.0554606,-0.0975236 0.0430787,-0.109898 0.0695512,-0.241228 0.0907874,-0.357024 0.0435079,-0.237232 0.142661,-0.627772 0.430417,-0.672701 0.0418071,-0.0065315 0.0840748,-0.00501575 0.125618,0.00260236 0.23237,0.0426142 0.438768,0.307567 0.57985,0.485067 0.0120079,0.0151102 0.0484724,0.0598228 0.0749606,0.082874 0.0149449,-0.036685 0.0303504,-0.104965 0.035126,-0.126114 0.0262717,-0.11628 0.0489606,-0.232681 0.0774764,-0.348618 0.0598465,-0.243354 0.130433,-0.553512 0.32039,-0.730071l0.0566772 -0.0526772 0.240197 0.258138 -0.0567402 0.0527402c-0.116402,0.108181 -0.180823,0.404283 -0.218157,0.556079 -0.0629724,0.256047 -0.1385,0.60389 -0.377055,0.754972 -0.0316929,0.0200709 -0.0670118,0.0314724 -0.104701,0.0309449 -0.0704882,-0.000992126 -0.129689,-0.0427323 -0.178618,-0.0896693 -0.0528504,-0.0507126 -0.100043,-0.111807 -0.145618,-0.169146 -0.0694764,-0.0874094 -0.263681,-0.338882 -0.367331,-0.35789 -0.000732283,-0.000133858 -0.00151181,-0.00023622 -0.00226378,-0.000220472 -0.0153701,0.000275591 -0.0431575,0.048063 -0.0487402,0.0587205 -0.0481811,0.0919961 -0.0762677,0.227154 -0.0948543,0.328512 -0.0492165,0.26835 -0.171051,0.808508 -0.552276,0.738598 -0.204075,-0.0374252 -0.377539,-0.265154 -0.501409,-0.420748 -0.0317559,-0.0398819 -0.0634724,-0.0800709 -0.0962087,-0.11922 -0.00428346,0.0642992 -0.00684252,0.128957 -0.00922441,0.193236 -0.00650787,0.175701 -0.0190079,0.353425 -0.0454921,0.527339 -0.0185236,0.121642 -0.0445551,0.247583 -0.0874331,0.363177 -0.0536614,0.144642 -0.146535,0.301339 -0.313102,0.326961 -0.0191299,0.00294094 -0.0384882,0.00397638 -0.0578268,0.00325984 -0.313752,-0.011622 -0.616327,-0.553606 -0.778358,-0.881217 -0.0264567,0.069126 -0.0470945,0.144965 -0.0639016,0.210315 -0.0306693,0.119272 -0.055378,0.240634 -0.0773504,0.361787 -0.0339724,0.187291 -0.0614764,0.37622 -0.085122,0.565094 -0.0111969,0.0894685 -0.0231496,0.181413 -0.0306969,0.27128l-0.00504331 0.0764567 -0.351965 -0.0220787 0.0051063 -0.0774961c0.00179528,-0.027185 0.00551181,-0.055626 0.00845276,-0.082748 0.00724409,-0.0668307 0.0151063,-0.133602 0.0234449,-0.200303 0.0250039,-0.199988 0.0541811,-0.400043 0.0902835,-0.598339 0.0232362,-0.127614 0.0493858,-0.25535 0.0816929,-0.380992 0.0319764,-0.12435 0.0734016,-0.265748 0.13463,-0.378921 0.0730236,-0.134988 0.190012,-0.243583 0.352839,-0.191169 0.0445945,0.0143583 0.0833858,0.0401575 0.116555,0.0729488 0.0265276,0.0262205 0.0429567,0.0637362 0.0587756,0.097063 0.0707205,0.148988 0.14426,0.296701 0.227445,0.439205 0.0531811,0.0911024 0.113283,0.187091 0.181772,0.267461 0.0207283,0.0243307 0.0848661,0.094374 0.121276,0.0992362z"/>
  <polygon class="fil1" points="1.25667,5.57 5.95,5.57 5.95,5.95 0.876665,5.95 0.876665,0.876665 1.25667,0.876665 "/>
 </g>
 <rect class="fil2" width="6.82666" height="6.82666"/>
</svg>
