<?xml version="1.0" encoding="UTF-8"?>
<!DOCTYPE svg PUBLIC "-//W3C//DTD SVG 1.1//EN" "http://www.w3.org/Graphics/SVG/1.1/DTD/svg11.dtd">
<!-- Creator: CorelDRAW -->
<svg xmlns="http://www.w3.org/2000/svg" xml:space="preserve" width="6.82666in" height="6.82666in" style="shape-rendering:geometricPrecision; text-rendering:geometricPrecision; image-rendering:optimizeQuality; fill-rule:evenodd; clip-rule:evenodd"
viewBox="0 0 6.82666 6.82666"
 xmlns:xlink="http://www.w3.org/1999/xlink">
 <defs>
  <style type="text/css">
   <![CDATA[
    .fil3 {fill:none}
    .fil0 {fill:#424242}
    .fil1 {fill:#FFFFFE}
    .fil2 {fill:#FFFFFE;fill-rule:nonzero}
   ]]>
  </style>
 </defs>
 <rect class="fil0" width="6.82666" height="6.82666"/>
 <g id="Layer_x0020_1">
  <metadata id="CorelCorpID_0Corel-Layer"/>
  <polygon class="fil1" points="1.25667,5.57 5.95,5.57 5.95,5.95 0.876665,5.95 0.876665,0.876665 1.25667,0.876665 "/>
  <g id="_350731872">
   <path id="_350732904" class="fil2" d="M3.36 5.25906l0 -0.279756 0.213339 0 0 0.279756 -0.213339 0zm0 -1.38504l0 -0.279756 0.213339 0 0 0.279756 -0.213339 0z"/>
   <polygon id="_350732784" class="fil2" points="3.27095,3.83999 3.66238,3.83999 3.79285,3.83999 3.79285,3.94666 3.79285,4.90666 3.79285,5.01333 3.66238,5.01333 3.27095,5.01333 3.14048,5.01333 3.14048,4.90666 3.14048,3.94666 3.14048,3.83999 "/>
  </g>
  <g id="_350731560">
   <path id="_350732256" class="fil2" d="M4.91285 4.22479l0 -0.279756 0.213339 0 0 0.279756 -0.213339 0zm0 -1.38504l0 -0.279756 0.213339 0 0 0.279756 -0.213339 0z"/>
   <polygon id="_350732208" class="fil2" points="4.82381,2.80572 5.21524,2.80572 5.34571,2.80572 5.34571,2.91239 5.34571,3.87239 5.34571,3.97906 5.21524,3.97906 4.82381,3.97906 4.69333,3.97906 4.69333,3.87239 4.69333,2.91239 4.69333,2.80572 "/>
  </g>
  <g id="_350732160">
   <path id="_350731944" class="fil2" d="M2.24619 3.2l0 -0.279756 0.213339 0 0 0.279756 -0.213339 0zm0 -1.38504l0 -0.279756 0.213339 0 0 0.279756 -0.213339 0z"/>
   <polygon id="_350731608" class="fil2" points="2.15714,1.78093 2.54857,1.78093 2.67904,1.78093 2.67904,1.8876 2.67904,2.8476 2.67904,2.95427 2.54857,2.95427 2.15714,2.95427 2.02667,2.95427 2.02667,2.8476 2.02667,1.8876 2.02667,1.78093 "/>
  </g>
  <g id="_350731344">
   <path id="_350731512" class="fil2" d="M3.62048 2.73145l0 -0.279756 0.213339 0 0 0.279756 -0.213339 0zm0 -1.38504l0 -0.279756 0.213339 0 0 0.279756 -0.213339 0z"/>
   <polygon id="_350731632" class="fil2" points="3.53143,1.31239 3.92286,1.31239 4.05333,1.31239 4.05333,1.41906 4.05333,2.37906 4.05333,2.48572 3.92286,2.48572 3.53143,2.48572 3.40096,2.48572 3.40096,2.37906 3.40096,1.41906 3.40096,1.31239 "/>
  </g>
 </g>
 <rect class="fil3" width="6.82666" height="6.82666"/>
</svg>
