<?xml version="1.0" encoding="UTF-8"?>
<!DOCTYPE svg PUBLIC "-//W3C//DTD SVG 1.1//EN" "http://www.w3.org/Graphics/SVG/1.1/DTD/svg11.dtd">
<!-- Creator: CorelDRAW -->
<svg xmlns="http://www.w3.org/2000/svg" xml:space="preserve" width="6.82666in" height="6.82666in" style="shape-rendering:geometricPrecision; text-rendering:geometricPrecision; image-rendering:optimizeQuality; fill-rule:evenodd; clip-rule:evenodd"
viewBox="0 0 6.82666 6.82666"
 xmlns:xlink="http://www.w3.org/1999/xlink">
 <defs>
  <style type="text/css">
   <![CDATA[
    .fil3 {fill:none}
    .fil0 {fill:#424242}
    .fil1 {fill:#FFFFFE}
    .fil2 {fill:#FFFFFE;fill-rule:nonzero}
   ]]>
  </style>
 </defs>
 <rect class="fil0" width="6.82666" height="6.82666"/>
 <g id="Layer_x0020_1">
  <metadata id="CorelCorpID_0Corel-Layer"/>
  <polygon class="fil1" points="1.25667,5.57 5.95,5.57 5.95,5.95 0.876665,5.95 0.876665,0.876665 1.25667,0.876665 "/>
  <g id="_350733672">
   <polygon id="_350733744" class="fil2" points="4.51615,1.86122 5.17789,1.72854 5.287,1.70666 5.30893,1.81605 5.44,2.46972 5.14391,2.2747 4.15233,3.57968 4.00439,3.48117 3.2613,2.9863 1.35839,5.35222 1.35666,5.35084 1.35666,4.74893 3.18302,2.47818 4.06633,3.06643 4.82669,2.06576 "/>
   <polygon id="_350733120" class="fil1" points="1.84904,3.23281 1.35666,3.88933 1.35666,3.25739 1.77761,2.69612 1.93,2.81501 4.19855,4.58489 4.88807,3.67744 4.54569,3.45194 5.38089,3.28447 5.54667,4.11123 5.20529,3.88638 4.26794,5.12 4.11657,5.0019 "/>
  </g>
 </g>
 <rect class="fil3" width="6.82666" height="6.82666"/>
</svg>
