<?xml version="1.0" encoding="UTF-8"?>
<!DOCTYPE svg PUBLIC "-//W3C//DTD SVG 1.1//EN" "http://www.w3.org/Graphics/SVG/1.1/DTD/svg11.dtd">
<!-- Creator: CorelDRAW -->
<svg xmlns="http://www.w3.org/2000/svg" xml:space="preserve" width="6.82666in" height="6.82666in" style="shape-rendering:geometricPrecision; text-rendering:geometricPrecision; image-rendering:optimizeQuality; fill-rule:evenodd; clip-rule:evenodd"
viewBox="0 0 6.82666 6.82666"
 xmlns:xlink="http://www.w3.org/1999/xlink">
 <defs>
  <style type="text/css">
   <![CDATA[
    .fil3 {fill:none}
    .fil0 {fill:#424242}
    .fil2 {fill:#FFFFFE}
    .fil1 {fill:#FFFFFE;fill-rule:nonzero}
   ]]>
  </style>
 </defs>
 <rect class="fil0" width="6.82666" height="6.82666"/>
 <g id="Layer_x0020_1">
  <metadata id="CorelCorpID_0Corel-Layer"/>
  <polygon class="fil1" points="1.34,4.57801 1.58952,4.86926 2.1615,3.75655 2.24053,3.6028 2.34655,3.7403 3.08539,4.6985 4.96418,1.96362 5.0383,1.85572 5.13253,1.94737 5.31232,2.12225 5.70106,1.51726 5.88697,1.62976 5.42508,2.3486 5.35193,2.46244 5.25459,2.36776 5.07168,2.18985 3.18139,4.94148 3.09576,5.06613 3.00319,4.94607 2.2778,4.0053 1.71019,5.10952 1.63552,5.25478 1.52856,5.12994 1.34,4.90984 "/>
  <polygon class="fil2" points="5.25295,3.09143 4.05797,4.87975 3.89598,4.68012 2.54277,3.01252 1.34,4.21529 1.34,3.67793 2.57172,2.44621 2.70445,2.60977 4.0284,4.24131 5.19299,2.49845 5.6541,2.93191 5.42024,3.25872 "/>
  <polygon class="fil2" points="1.25667,5.57 5.95,5.57 5.95,5.95 0.876665,5.95 0.876665,0.876665 1.25667,0.876665 "/>
 </g>
 <rect class="fil3" width="6.82666" height="6.82666"/>
</svg>
