<?xml version="1.0" encoding="UTF-8"?>
<!DOCTYPE svg PUBLIC "-//W3C//DTD SVG 1.1//EN" "http://www.w3.org/Graphics/SVG/1.1/DTD/svg11.dtd">
<!-- Creator: CorelDRAW -->
<svg xmlns="http://www.w3.org/2000/svg" xml:space="preserve" width="6.82666in" height="6.82666in" style="shape-rendering:geometricPrecision; text-rendering:geometricPrecision; image-rendering:optimizeQuality; fill-rule:evenodd; clip-rule:evenodd"
viewBox="0 0 6.82666 6.82666"
 xmlns:xlink="http://www.w3.org/1999/xlink">
 <defs>
  <style type="text/css">
   <![CDATA[
    .fil3 {fill:none}
    .fil0 {fill:#424242}
    .fil1 {fill:#FFFFFE}
    .fil2 {fill:#FFFFFE;fill-rule:nonzero}
   ]]>
  </style>
 </defs>
 <rect class="fil0" width="6.82666" height="6.82666"/>
 <g id="Layer_x0020_1">
  <metadata id="CorelCorpID_0Corel-Layer"/>
  <polygon class="fil1" points="1.25667,5.57 5.95,5.57 5.95,5.95 0.876665,5.95 0.876665,0.876665 1.25667,0.876665 "/>
  <path class="fil2" d="M1.50532 4.58666l2.63565 0 0.106669 0 0 0.0765079 0 0.33237 0 0.0765079 -0.106669 0 -2.63565 0 -0.106669 0 0 -0.0765079 0 -0.33237 0 -0.0765079 0.106669 0zm2.99492 0l0.845079 0 0.106669 0 0 0.0765079 0 0.33237 0 0.0765079 -0.106669 0 -0.845079 0 -0.106669 0 0 -0.0765079 0 -0.33237 0 -0.0765079 0.106669 0z"/>
  <path class="fil2" d="M1.49658 3.67461l2.41978 0 0.0979331 0 0 0.0765079 0 0.33237 0 0.0765079 -0.0979331 0 -2.41978 0 -0.0979331 0 0 -0.0765079 0 -0.33237 0 -0.0765079 0.0979331 0zm2.74962 0l0.775862 0 0.0979331 0 0 0.0765079 0 0.33237 0 0.0765079 -0.0979331 0 -0.775862 0 -0.0979331 0 0 -0.0765079 0 -0.33237 0 -0.0765079 0.0979331 0z"/>
  <path class="fil2" d="M1.48535 2.66666l2.14234 0 0.0867047 0 0 0.0765079 0 0.33237 0 0.0765079 -0.0867047 0 -2.14234 0 -0.0867047 0 0 -0.0765079 0 -0.33237 0 -0.0765079 0.0867047 0zm2.43437 0l0.686906 0 0.0867047 0 0 0.0765079 0 0.33237 0 0.0765079 -0.0867047 0 -0.686906 0 -0.0867047 0 0 -0.0765079 0 -0.33237 0 -0.0765079 0.0867047 0z"/>
 </g>
 <rect class="fil3" width="6.82666" height="6.82666"/>
</svg>
