<?xml version="1.0" encoding="UTF-8"?>
<!DOCTYPE svg PUBLIC "-//W3C//DTD SVG 1.1//EN" "http://www.w3.org/Graphics/SVG/1.1/DTD/svg11.dtd">
<!-- Creator: CorelDRAW -->
<svg xmlns="http://www.w3.org/2000/svg" xml:space="preserve" width="6.82666in" height="6.82666in" style="shape-rendering:geometricPrecision; text-rendering:geometricPrecision; image-rendering:optimizeQuality; fill-rule:evenodd; clip-rule:evenodd"
viewBox="0 0 6.82666 6.82666"
 xmlns:xlink="http://www.w3.org/1999/xlink">
 <defs>
  <style type="text/css">
   <![CDATA[
    .fil2 {fill:none}
    .fil0 {fill:#424242}
    .fil1 {fill:#FFFFFE}
   ]]>
  </style>
 </defs>
 <rect class="fil0" width="6.82666" height="6.82666"/>
 <g id="Layer_x0020_1">
  <metadata id="CorelCorpID_0Corel-Layer"/>
  <g id="_350704224">
   <polygon id="_350705304" class="fil1" points="1.23683,5.58983 5.97333,5.58983 5.97333,5.97333 0.853331,5.97333 0.853331,0.853331 1.23683,0.853331 "/>
   <g>
    <polygon id="_350705208" class="fil1" points="1.79862,4.45581 1.79862,5.35099 1.4824,5.35099 1.4824,4.45581 "/>
    <polygon id="_350705232" class="fil1" points="2.48756,3.73627 2.48756,5.35099 2.17135,5.35099 2.17135,3.73627 "/>
    <polygon id="_350705040" class="fil1" points="3.17651,2.4445 3.17651,5.35099 2.8603,5.35099 2.8603,2.4445 "/>
    <polygon id="_350703864" class="fil1" points="3.86545,3.73627 3.86545,5.35099 3.54924,5.35099 3.54924,3.73627 "/>
    <polygon id="_350704536" class="fil1" points="4.5544,2.4445 4.5544,5.35099 4.23819,5.35099 4.23819,2.4445 "/>
    <polygon id="_350704488" class="fil1" points="5.24335,3.73627 5.24335,5.35099 4.92713,5.35099 4.92713,3.73627 "/>
   </g>
  </g>
 </g>
 <rect class="fil2" width="6.82666" height="6.82666"/>
</svg>
