<?xml version="1.0" encoding="UTF-8"?>
<!DOCTYPE svg PUBLIC "-//W3C//DTD SVG 1.1//EN" "http://www.w3.org/Graphics/SVG/1.1/DTD/svg11.dtd">
<!-- Creator: CorelDRAW -->
<svg xmlns="http://www.w3.org/2000/svg" xml:space="preserve" width="6.82666in" height="6.82666in" style="shape-rendering:geometricPrecision; text-rendering:geometricPrecision; image-rendering:optimizeQuality; fill-rule:evenodd; clip-rule:evenodd"
viewBox="0 0 6.82666 6.82666"
 xmlns:xlink="http://www.w3.org/1999/xlink">
 <defs>
  <style type="text/css">
   <![CDATA[
    .fil2 {fill:none}
    .fil0 {fill:#424242}
    .fil1 {fill:#FFFFFE}
   ]]>
  </style>
 </defs>
 <rect class="fil0" width="6.82666" height="6.82666"/>
 <g id="Layer_x0020_1">
  <metadata id="CorelCorpID_0Corel-Layer"/>
  <path class="fil1" d="M0.96 0.853331l4.90666 0 0.106669 0 0 0.106669 0 4.90666 0 0.106669 -0.106669 0 -4.90666 0 -0.106669 0 0 -0.106669 0 -4.90666 0 -0.106669 0.106669 0zm0.0533346 0.853327l0.639996 0 0 -0.639996 0.106669 0 0 0.639996 0.746665 0 0 -0.639996 0.106669 0 0 0.639996 0.746665 0 0 -0.639996 0.106669 0 0 0.639996 0.746665 0 0 -0.639996 0.106669 0 0 0.639996 0.746665 0 0 -0.639996 0.106669 0 0 0.639996 0.639996 0 0 0.106669 -0.639996 0 0 0.746665 0.0395748 0c0.0678386,-0.182594 0.154811,-0.384858 0.285606,-0.506433l0.0435827 -0.0405118 0.21061 0.226346 -0.0436299 0.0405591c-0.0571457,0.0531142 -0.102063,0.140311 -0.134157,0.210551 -0.0104724,0.0229173 -0.0205,0.0461102 -0.030189,0.0694882l0.268598 0 0 0.106669 -0.310394 0c-0.0169252,0.0452598 -0.0331614,0.0907559 -0.0494094,0.135909 -0.0478976,0.133114 -0.0961654,0.269937 -0.160461,0.396094 -0.0329134,0.0645906 -0.0718937,0.129504 -0.119732,0.186016l0 0.0286457 0.639996 0 0 0.106669 -0.639996 0 0 0.746665 0.639996 0 0 0.106669 -0.639996 0 0 0.746665 0.639996 0 0 0.106669 -0.639996 0 0 0.639996 -0.106669 0 0 -0.639996 -0.746665 0 0 0.639996 -0.106669 0 0 -0.639996 -0.746665 0 0 0.639996 -0.106669 0 0 -0.639996 -0.746665 0 0 0.639996 -0.106669 0 0 -0.639996 -0.746665 0 0 0.639996 -0.106669 0 0 -0.639996 -0.639996 0 0 -0.106669 0.0520984 0 0.00200394 -0.0302638c0.00128346,-0.0193661 0.0189724,-0.065878 0.0253465,-0.084748 0.0196575,-0.0582205 0.0402205,-0.116185 0.0612913,-0.173906 0.0562205,-0.15402 0.116421,-0.307346 0.182043,-0.457748l-0.322783 0 0 -0.106669 0.370512 0c0.0259646,-0.0564961 0.0529331,-0.112551 0.0812717,-0.16787 0.0535669,-0.104563 0.115913,-0.217185 0.188213,-0.313787l0 -0.265008 -0.639996 0 0 -0.106669 0.639996 0 0 -0.746665 -0.639996 0 0 -0.106669 0.639996 0 0 -0.746665 -0.639996 0 0 -0.106669zm4.16087 0.960004l-0.000870079 0 0 0.00242126 0.000870079 -0.00242126zm-3.79886 2.45333l0.277984 0 0 -0.701394c-0.0696339,0.151453 -0.133256,0.306335 -0.19263,0.462051 -0.0210197,0.0551181 -0.0415394,0.110461 -0.0612756,0.166051 -0.00783858,0.0220787 -0.0170827,0.0461575 -0.0237874,0.0688425l-0.000291339 0.00444882zm3.69132 -3.30667l-0.746665 0 0 0.746665 0.746665 0 0 -0.746665zm-0.853335 0l-0.746665 0 0 0.746665 0.746665 0 0 -0.746665zm-0.853335 0l-0.746665 0 0 0.746665 0.746665 0 0 -0.746665zm-0.853335 0l-0.746665 0 0 0.746665 0.746665 0 0 -0.746665zm2.56 3.30667l0 -0.746665 -0.746665 0 0 0.746665 0.746665 0zm0 -0.853335l0 -0.746665 -0.746665 0 0 0.746665 0.746665 0zm0 -1.28827l0 -0.311728 -0.634909 0c0.192047,0.0596417 0.362713,0.27861 0.481075,0.427524 0.0183425,0.0230787 0.0324291,0.0478228 0.045063,0.0743543 0.000586614,0.00123622 0.00122047,0.00262205 0.00188976,0.00411811 0.0414449,-0.0405276 0.0697756,-0.101764 0.0902441,-0.151854 0.00572835,-0.0140236 0.0112598,-0.0281693 0.0166378,-0.0424134zm-0.746665 -0.0134764l0 0.448413 0.456469 0c-0.0375236,-0.039878 -0.0721142,-0.0844488 -0.105709,-0.126713 -0.0643504,-0.0809606 -0.239803,-0.308642 -0.336106,-0.326303 -0.00101181,-0.000181102 -0.00204724,-0.00030315 -0.00307874,-0.000287402 -0.00364567,4.33071e-005 -0.00757087,0.00188189 -0.0115748,0.00488976zm-2.56 -0.298252l0 0.746665 0.746665 0 0 -0.746665 -0.746665 0zm0 0.853335l0 0.145047c0.0801693,-0.0722874 0.179776,-0.121906 0.29148,-0.0894134 0.0436969,0.0127047 0.0818346,0.0362638 0.113949,0.068378l0.000370079 0.000374016c0.0229528,0.0229449 0.0378425,0.0568504 0.0516299,0.0859094 0.0638465,0.134524 0.130209,0.267906 0.205134,0.396677 0.0261457,0.044937 0.0541063,0.0911417 0.0841024,0.135709l0 -0.742681 -0.746665 0zm0 0.680913l0 0.065752 0.389807 0c-0.079811,-0.133531 -0.146252,-0.267165 -0.192661,-0.363906 -0.0110472,0.0118543 -0.0213583,0.0239173 -0.0267953,0.0303465 -0.0649803,0.0768465 -0.122051,0.175835 -0.17035,0.267807zm0 0.172421l0 0.746665 0.746665 0 0 -0.419787c-0.103898,-0.0736339 -0.202783,-0.195169 -0.289898,-0.326878l-0.456768 0zm0.853335 -1.70667l0 0.746665 0.247563 0c0.00804724,-0.0431496 0.0186969,-0.0849488 0.0328898,-0.123244 0.027874,-0.0752126 0.0740984,-0.146232 0.154402,-0.171484 0.0230079,-0.00723622 0.0469134,-0.0100039 0.0709803,-0.00911024 0.079063,0.0029252 0.14674,0.0501654 0.202406,0.102516 0.0131102,0.0123307 0.0259016,0.0252008 0.0384252,0.0384646l0 -0.583807 -0.746665 0zm0 0.853335l0 0.746665 0.166886 0c0.0149606,-0.0744252 0.0245,-0.151063 0.0321063,-0.226244 0.0127677,-0.126232 0.0197913,-0.2535 0.0244882,-0.380264 0.00164567,-0.0443819 0.00428346,-0.0920433 0.00913386,-0.140157l-0.232614 0zm0.470118 0.746665l0.276547 0 0 -0.531071c-0.0401339,-0.0465157 -0.076815,-0.0933661 -0.109539,-0.134469 -0.0215394,-0.0270551 -0.0430591,-0.0542559 -0.064937,-0.081126l-0.0334291 0c-0.00270472,0.0504016 -0.0046378,0.100913 -0.00650394,0.151268 -0.00590551,0.159484 -0.0173031,0.320835 -0.0414882,0.478677 -0.00591732,0.0386102 -0.0126811,0.0777126 -0.0206496,0.11672zm-0.470118 0.106669l0 0.0260551c0.0274331,0.0286614 0.0657244,0.0631772 0.0915276,0.0645906 0.00827953,-0.0035315 0.0214882,-0.026126 0.0251142,-0.0330433 0.00916535,-0.0174803 0.0169055,-0.0372283 0.0235276,-0.0576024l-0.140169 0zm0 0.383583l0 0.363083 0.746665 0 0 -0.746665 -0.301811 0c-0.00979134,0.0357795 -0.0209331,0.0710157 -0.0337126,0.105232 -0.0478819,0.128189 -0.130492,0.268185 -0.27822,0.291236 -0.0171811,0.0026811 -0.0345827,0.00362598 -0.0519606,0.00298031 -0.0270906,-0.00100394 -0.0541102,-0.00653543 -0.0809606,-0.0158661zm0.853335 -2.09025l0 0.70952c0.00866142,0.0108701 0.0172559,0.0217047 0.0258031,0.0324409l0.00373228 0.00470472 0.365035 0c0.0121535,-0.0522126 0.0222047,-0.104705 0.0311969,-0.153728 0.0368543,-0.200953 0.117146,-0.506146 0.320898,-0.588386l0 -0.00455118 -0.746665 0zm0.710244 0.746665l0.0364213 0 0 -0.183705c-0.00650787,0.0299528 -0.0120906,0.0590591 -0.0169764,0.0856929 -0.0053937,0.0294173 -0.0117795,0.0625866 -0.0194449,0.0980118zm-0.710244 0.433783l0 0.419551 0.746665 0 0 -0.746665 -0.0622677 0c-0.0645079,0.237791 -0.189795,0.508201 -0.449236,0.460622 -0.0846299,-0.0155197 -0.163654,-0.0678858 -0.235161,-0.133508zm0.365992 -0.327114l-0.249972 0c0.060189,0.0709764 0.132417,0.147457 0.173445,0.156413 0.0184449,-0.00891339 0.0456063,-0.0706496 0.0519961,-0.0866496 0.00890945,-0.022315 0.0170472,-0.0457087 0.0245315,-0.0697638zm-0.365992 0.853335l0 0.746665 0.746665 0 0 -0.746665 -0.746665 0z"/>
 </g>
 <rect class="fil2" width="6.82666" height="6.82666"/>
</svg>
