<?xml version="1.0" encoding="UTF-8"?>
<!DOCTYPE svg PUBLIC "-//W3C//DTD SVG 1.1//EN" "http://www.w3.org/Graphics/SVG/1.1/DTD/svg11.dtd">
<!-- Creator: CorelDRAW -->
<svg xmlns="http://www.w3.org/2000/svg" xml:space="preserve" width="6.82666in" height="6.82666in" style="shape-rendering:geometricPrecision; text-rendering:geometricPrecision; image-rendering:optimizeQuality; fill-rule:evenodd; clip-rule:evenodd"
viewBox="0 0 6.82666 6.82666"
 xmlns:xlink="http://www.w3.org/1999/xlink">
 <defs>
  <style type="text/css">
   <![CDATA[
    .fil2 {fill:none}
    .fil0 {fill:#424242}
    .fil1 {fill:#FFFFFE}
   ]]>
  </style>
 </defs>
 <rect class="fil0" width="6.82666" height="6.82666"/>
 <g id="Layer_x0020_1">
  <metadata id="CorelCorpID_0Corel-Layer"/>
  <path class="fil1" d="M0.96 0.853331l4.90666 0 0.106669 0 0 0.106669 0 4.90666 0 0.106669 -0.106669 0 -4.90666 0 -0.106669 0 0 -0.106669 0 -4.90666 0 -0.106669 0.106669 0zm4.21334 0.213331l0 0.639996 0.639996 0 0 0.106669 -0.639996 0 0 0.746665 0.00844882 0 0.386827 -0.50589 0.168835 0.128882 -0.28828 0.377008 0.364165 0 0 0.106669 -0.445728 0 -0.194268 0.254059 0 0.492606 0.639996 0 0 0.106669 -0.639996 0 0 0.746665 0.639996 0 0 0.106669 -0.639996 0 0 0.746665 0.639996 0 0 0.106669 -0.639996 0 0 0.639996 -0.106669 0 0 -0.639996 -0.746665 0 0 0.639996 -0.106669 0 0 -0.639996 -0.746665 0 0 0.639996 -0.106669 0 0 -0.639996 -0.746665 0 0 0.639996 -0.106669 0 0 -0.639996 -0.746665 0 0 0.639996 -0.106669 0 0 -0.639996 -0.162614 0 -0.308941 0.587827 -0.188059 -0.0988346 0.256996 -0.488992 -0.237378 0 0 -0.106669 0.293441 0 0.346555 -0.659398 0 -0.0872677 -0.639996 0 0 -0.106669 0.639996 0 0 -0.746665 -0.639996 0 0 -0.106669 0.639996 0 0 -0.746665 -0.639996 0 0 -0.106669 0.639996 0 0 -0.746665 -0.639996 0 0 -0.106669 0.639996 0 0 -0.639996 0.106669 0 0 0.639996 0.746665 0 0 -0.639996 0.106669 0 0 0.639996 0.746665 0 0 -0.639996 0.106669 0 0 0.639996 0.746665 0 0 -0.639996 0.106669 0 0 0.639996 0.746665 0 0 -0.639996 0.106669 0zm-3.62656 4.05333l0.106551 0 0 -0.20274 -0.106551 0.20274zm3.51989 0l0 -0.746665 -0.746665 0 0 0.746665 0.746665 0zm0 -0.853335l0 -0.746665 -0.351567 0 -0.376689 0.49263 -0.0184094 0.0240748 0 0.229961 0.746665 0zm-0.618949 -0.746665l-0.127717 0 0 0.167028 0.127717 -0.167028zm0.618949 -0.106669l0 -0.353106 -0.27 0.353106 0.27 0zm0 -0.702787l0 -0.043878 -0.746665 0 0 0.746665 0.20928 0 0.537386 -0.702787zm0 -0.150547l0 -0.746665 -0.746665 0 0 0.746665 0.746665 0zm-0.853335 -0.746665l-0.746665 0 0 0.746665 0.746665 0 0 -0.746665zm-0.853335 0l-0.746665 0 0 0.746665 0.746665 0 0 -0.746665zm-0.853335 0l-0.746665 0 0 0.746665 0.746665 0 0 -0.746665zm-0.746665 3.30667l0.746665 0 0 -0.746665 -0.567465 0 -0.179201 0.340965 0 0.405701zm0.853335 0l0.746665 0 0 -0.746665 -0.746665 0 0 0.746665zm0.853335 0l0.746665 0 0 -0.746665 -0.746665 0 0 0.746665zm-1.47141 -0.853335l0.511406 0 0 -0.746665 -0.118984 0 -0.392421 0.746665zm0.152417 -0.746665l-0.387677 0 0 0.737642 0.387677 -0.737642zm0.465657 0.746665l0.746665 0 0 -0.612559 -0.291768 -0.134106 -0.454898 0 0 0.746665zm0.853335 0l0.746665 0 0 -0.220335 -0.0035315 -0.00162205 -0.743134 -0.341571 0 0.563528zm0.746665 -0.453992l0 -0.292673 -0.636744 0 0.636744 0.292673zm-2.45333 -0.399343l0.44374 0 0.175126 -0.333217 0.0468346 -0.0891102 0.0809646 0.0372165 0 -0.361555 -0.746665 0 0 0.746665zm0.683744 0l0.0629213 0 0 -0.119724 -0.0629213 0.119724zm0.169591 0l0.222827 0 -0.222827 -0.102417 0 0.102417zm0.731181 0l0.0154843 0 0 -0.746665 -0.746665 0 0 0.410587 0.731181 0.336079zm0.122154 0l0.746665 0 0 -0.746665 -0.746665 0 0 0.746665z"/>
 </g>
 <rect class="fil2" width="6.82666" height="6.82666"/>
</svg>
