<?xml version="1.0" encoding="UTF-8"?>
<!DOCTYPE svg PUBLIC "-//W3C//DTD SVG 1.1//EN" "http://www.w3.org/Graphics/SVG/1.1/DTD/svg11.dtd">
<!-- Creator: CorelDRAW -->
<svg xmlns="http://www.w3.org/2000/svg" xml:space="preserve" width="6.82666in" height="6.82666in" style="shape-rendering:geometricPrecision; text-rendering:geometricPrecision; image-rendering:optimizeQuality; fill-rule:evenodd; clip-rule:evenodd"
viewBox="0 0 6.82666 6.82666"
 xmlns:xlink="http://www.w3.org/1999/xlink">
 <defs>
  <style type="text/css">
   <![CDATA[
    .fil2 {fill:none}
    .fil0 {fill:#424242}
    .fil1 {fill:#FFFFFE}
   ]]>
  </style>
 </defs>
 <rect class="fil0" width="6.82666" height="6.82666"/>
 <g id="Layer_x0020_1">
  <metadata id="CorelCorpID_0Corel-Layer"/>
  <path class="fil1" d="M0.96 0.853331l4.90666 0 0.106669 0 0 0.106669 0 4.90666 0 0.106669 -0.106669 0 -4.90666 0 -0.106669 0 0 -0.106669 0 -4.90666 0 -0.106669 0.106669 0zm0.812382 3.30667l-0.543717 0 0 1.6 0.543717 0 0 -1.6zm1.86467 -0.8l-0.543717 0 0 2.4 0.543717 0 0 -2.4zm-0.897154 0.373339l-0.543717 0 0 2.02666 0.543717 0 0 -2.02666zm1.1001 1.33333l0.373335 0 0 -0.746665 -0.373335 0 0 -0.106669 0.373335 0 0 -0.746665 -0.373335 0 0 -0.106669 0.373335 0 0 -0.746665 -3.2 0 0 -0.106669 3.2 0 0 -0.746665 -3.2 0 0 -0.106669 3.2 0 0 -0.639996 0.106669 0 0 0.639996 0.746665 0 0 -0.639996 0.106669 0 0 0.639996 0.639996 0 0 0.106669 -0.639996 0 0 0.746665 0.639996 0 0 0.106669 -0.639996 0 0 0.746665 0.639996 0 0 0.106669 -0.639996 0 0 0.746665 0.639996 0 0 0.106669 -0.639996 0 0 0.746665 0.639996 0 0 0.106669 -0.639996 0 0 0.639996 -0.106669 0 0 -0.639996 -0.746665 0 0 0.639996 -0.106669 0 0 -0.639996 -0.373335 0 0 -0.106669zm0.480004 0l0.746665 0 0 -0.746665 -0.746665 0 0 0.746665zm0 -0.853335l0.746665 0 0 -0.746665 -0.746665 0 0 0.746665zm0 -0.853335l0.746665 0 0 -0.746665 -0.746665 0 0 0.746665zm0 -0.853335l0.746665 0 0 -0.746665 -0.746665 0 0 0.746665z"/>
 </g>
 <rect class="fil2" width="6.82666" height="6.82666"/>
</svg>
