<?xml version="1.0" encoding="UTF-8"?>
<!DOCTYPE svg PUBLIC "-//W3C//DTD SVG 1.1//EN" "http://www.w3.org/Graphics/SVG/1.1/DTD/svg11.dtd">
<!-- Creator: CorelDRAW -->
<svg xmlns="http://www.w3.org/2000/svg" xml:space="preserve" width="6.82666in" height="6.82666in" style="shape-rendering:geometricPrecision; text-rendering:geometricPrecision; image-rendering:optimizeQuality; fill-rule:evenodd; clip-rule:evenodd"
viewBox="0 0 6.82666 6.82666"
 xmlns:xlink="http://www.w3.org/1999/xlink">
 <defs>
  <style type="text/css">
   <![CDATA[
    .fil2 {fill:none}
    .fil0 {fill:#424242}
    .fil1 {fill:#FFFFFE}
   ]]>
  </style>
 </defs>
 <rect class="fil0" width="6.82666" height="6.82666"/>
 <g id="Layer_x0020_1">
  <metadata id="CorelCorpID_0Corel-Layer"/>
  <path class="fil1" d="M0.96 0.853331l4.90666 0 0.106669 0 0 0.106669 0 4.90666 0 0.106669 -0.106669 0 -4.90666 0 -0.106669 0 0 -0.106669 0 -4.90666 0 -0.106669 0.106669 0zm1.73001 2.42297c-0.0289409,-0.0289409 -0.0689488,-0.0468504 -0.113142,-0.0468504 -0.0441929,0 -0.0842008,0.0179055 -0.113146,0.0468504 -0.0289449,0.0289449 -0.0468504,0.0689528 -0.0468504,0.113146 0,0.0441929 0.0179055,0.0842008 0.0468504,0.113146 0.0289449,0.0289449 0.0689528,0.0468504 0.113146,0.0468504 0.0441929,0 0.0842008,-0.0179094 0.113142,-0.0468504 0.0289488,-0.0289488 0.0468543,-0.0689528 0.0468543,-0.113146 0,-0.0441929 -0.0179055,-0.0841969 -0.0468543,-0.113146zm1.6802 0.878043c-0.0289488,-0.0289488 -0.0689528,-0.0468543 -0.113146,-0.0468543 -0.044189,0 -0.0841969,0.0179094 -0.113142,0.0468543 -0.0289449,0.0289449 -0.0468543,0.0689528 -0.0468543,0.113142 0,0.0441929 0.0179055,0.0841969 0.0468543,0.113146 0.0289409,0.0289409 0.0689488,0.0468504 0.113142,0.0468504 0.0441929,0 0.0842008,-0.0179055 0.113146,-0.0468504 0.0289449,-0.0289449 0.0468504,-0.0689528 0.0468504,-0.113146 0,-0.0441929 -0.0179094,-0.0842008 -0.0468504,-0.113142zm0.803134 -3.08768l0 0.639996 0.639996 0 0 0.106669 -0.639996 0 0 0.746665 0.545008 0 0.0162362 -0.0179173 0.0198031 0.0179173 0.0589488 0 0 0.0533346 0.078752 0.071252 -0.660425 0.728748 0.581673 0 0 0.106669 -0.639996 0 0 0.746665 0.639996 0 0 0.106669 -0.639996 0 0 0.746665 0.639996 0 0 0.106669 -0.639996 0 0 0.639996 -0.106669 0 0 -0.639996 -0.746665 0 0 0.639996 -0.106669 0 0 -0.639996 -0.746665 0 0 0.639996 -0.106669 0 0 -0.639996 -0.746665 0 0 0.639996 -0.106669 0 0 -0.639996 -0.746665 0 0 0.639996 -0.106669 0 0 -0.639996 -0.159559 0 -0.444189 0.697079 -0.179165 -0.114165 0.371441 -0.582913 -0.228524 0 0 -0.106669 0.296496 0 0.3435 -0.539067 0 -0.207598 -0.639996 0 0 -0.106669 0.639996 0 0 -0.746665 -0.639996 0 0 -0.106669 0.639996 0 0 -0.746665 -0.639996 0 0 -0.106669 0.639996 0 0 -0.746665 -0.639996 0 0 -0.106669 0.639996 0 0 -0.639996 0.106669 0 0 0.639996 0.746665 0 0 -0.639996 0.106669 0 0 0.639996 0.746665 0 0 -0.639996 0.106669 0 0 0.639996 0.746665 0 0 -0.639996 0.106669 0 0 0.639996 0.746665 0 0 -0.639996 0.106669 0zm0.448339 1.6l-0.448339 0 0 0.49472 0.448339 -0.49472zm-4.05994 2.45333l0.0915906 0 0 -0.143732 -0.0915906 0.143732zm3.50493 0l0 -0.746665 -0.4515 0c-0.0178701,0.0605315 -0.0506654,0.114665 -0.0941299,0.158134 -0.0535039,0.0535 -0.123173,0.0908386 -0.201035,0.104063l0 0.484469 0.746665 0zm-0.43628 -0.853335l0.43628 0 0 -0.671276 -0.469461 0.518028c0.0212047,0.0467362 0.033063,0.0986181 0.0331811,0.153248zm0.217957 -0.746665l-0.528343 0 0 0.379445c0.0496142,0.00842913 0.0959016,0.0266496 0.136799,0.0526024l0.391543 -0.432047zm-0.635012 0.376689l0 -0.376689 -0.746665 0 0 0.226079 0.502394 0.28385c0.00758661,-0.00918504 0.0156024,-0.018 0.0240197,-0.0264173 0.0578661,-0.0578701 0.134638,-0.0968346 0.220252,-0.106823zm-0.746665 0.0932402l0 0.276736 0.417055 0c3.14961e-005,-0.0134646 0.000775591,-0.0267638 0.00219685,-0.0398583l-0.419252 -0.236878zm0.43228 0.383406l-0.43228 0 0 0.746665 0.746665 0 0 -0.481717c-0.0856063,-0.00998819 -0.162386,-0.0489488 -0.220252,-0.106815 -0.0434685,-0.0434685 -0.0762638,-0.0976024 -0.0941339,-0.158134zm1.16772 -1.09424l0 -0.612425 -0.746665 0 0 0.746665 0.625008 0 0.121657 -0.13424zm-0.853335 0.13424l0 -0.746665 -0.746665 0 0 0.746665 0.746665 0zm0.853335 -0.853335l0 -0.746665 -0.746665 0 0 0.746665 0.746665 0zm-3.30667 2.56l0.746665 0 0 -0.746665 -0.469138 0 -0.277528 0.435531 0 0.311134zm0.0256142 -0.746665l-0.0256142 0 0 0.0401969 0.0256142 -0.0401969zm0.82772 0.746665l0.746665 0 0 -0.746665 -0.746665 0 0 0.746665zm1.6 -3.30667l-0.746665 0 0 0.746665 0.746665 0 0 -0.746665zm-0.853335 0l-0.746665 0 0 0.746665 0.746665 0 0 -0.746665zm-0.853335 0l-0.746665 0 0 0.746665 0.746665 0 0 -0.746665zm0.853335 0.853335l-0.746665 0 0 0.351217c0.0885236,0.00858661 0.168012,0.0480906 0.227508,0.107587 0.0675669,0.0675669 0.109358,0.160902 0.109358,0.26398 0,0.00802362 -0.000251969,0.0159843 -0.000751969,0.0238819l0.410551 0 0 -0.746665zm-0.853335 0.356043l0 -0.356043 -0.746665 0 0 0.746665 0.444287 0c-0.0005,-0.0078937 -0.000755906,-0.0158583 -0.000755906,-0.0238819 0,-0.103079 0.0417913,-0.196413 0.109354,-0.26398 0.0518386,-0.0518346 0.118843,-0.0884961 0.19378,-0.10276zm-0.279657 0.497291l-0.467008 0 0 0.746665 0.0935866 0 0.420122 -0.659311c-0.0192205,-0.0266929 -0.0350039,-0.0560276 -0.0467008,-0.0873543zm-0.121512 0.746665l0.401169 0 0 -0.510476c-0.0221535,-0.00422047 -0.0436142,-0.0103976 -0.0641969,-0.0183425l-0.336972 0.528819zm0.507839 -0.50565l0 0.50565 0.746665 0 0 -0.337004 -0.508528 -0.287319c-0.00347244,0.00376378 -0.00700787,0.00746457 -0.0106299,0.0110866 -0.0594961,0.0594961 -0.138984,0.099 -0.227508,0.107587zm0.746665 -0.0752047l0 -0.165811 -0.293469 0 0.293469 0.165811z"/>
 </g>
 <rect class="fil2" width="6.82666" height="6.82666"/>
</svg>
