<?xml version="1.0" encoding="UTF-8"?>
<!DOCTYPE svg PUBLIC "-//W3C//DTD SVG 1.1//EN" "http://www.w3.org/Graphics/SVG/1.1/DTD/svg11.dtd">
<!-- Creator: CorelDRAW -->
<svg xmlns="http://www.w3.org/2000/svg" xml:space="preserve" width="6.82666in" height="6.82666in" style="shape-rendering:geometricPrecision; text-rendering:geometricPrecision; image-rendering:optimizeQuality; fill-rule:evenodd; clip-rule:evenodd"
viewBox="0 0 6.82666 6.82666"
 xmlns:xlink="http://www.w3.org/1999/xlink">
 <defs>
  <style type="text/css">
   <![CDATA[
    .fil2 {fill:none}
    .fil0 {fill:#424242}
    .fil1 {fill:#FFFFFE}
   ]]>
  </style>
 </defs>
 <rect class="fil0" width="6.82666" height="6.82666"/>
 <g id="Layer_x0020_1">
  <metadata id="CorelCorpID_0Corel-Layer"/>
  <path class="fil1" d="M0.96 0.853331l4.90666 0 0.106669 0 0 0.106669 0 4.90666 0 0.106669 -0.106669 0 -4.90666 0 -0.106669 0 0 -0.106669 0 -4.90666 0 -0.106669 0.106669 0zm4.26667 3.94667l-0.426661 0 0 0.426661 0.426661 0 0 -0.426661zm-0.00135827 -2.13288l-0.426661 0 0 0.426661 0.426661 0 0 -0.426661zm-2.13198 -1.06712l-0.426661 0 0 0.426661 0.426661 0 0 -0.426661zm-1.06667 2.13333l-0.426661 0 0 0.426661 0.426661 0 0 -0.426661zm3.03865 -2.77333l0 0.80135 0.80135 0 0 0.106669 -0.80135 0 0 0.58576 0.266665 0 0.106669 0 0 0.106669 0 0.266665 0.428016 0 0 0.106669 -0.428016 0 0 0.266665 0 0.106669 -0.106669 0 -0.266665 0 0 0.58576 0.80135 0 0 0.106669 -0.80135 0 0 0.58711 0.268024 0 0.106669 0 0 0.106669 0 0.265315 0.426657 0 0 0.106669 -0.426657 0 0 0.268016 0 0.106669 -0.106669 0 -0.268024 0 0 0.426665 -0.106669 0 0 -0.426665 -0.265307 0 -0.106669 0 0 -0.106669 0 -0.268016 -0.587118 0 0 0.80135 -0.106669 0 0 -0.80135 -0.959094 0 0 0.80135 -0.106669 0 0 -0.80135 -0.959094 0 0 0.80135 -0.106669 0 0 -0.80135 -0.80135 0 0 -0.106669 0.80135 0 0 -0.585311 -0.268016 0 -0.106669 0 0 -0.106669 0 -0.267114 -0.426665 0 0 -0.106669 0.426665 0 0 -0.266217 0 -0.106669 0.106669 0 0.268016 0 0 -0.586209 -0.80135 0 0 -0.106669 0.80135 0 0 -0.959094 -0.80135 0 0 -0.106669 0.80135 0 0 -0.80135 0.106669 0 0 0.80135 0.585311 0 0 -0.268024 0 -0.106669 0.106669 0 0.267114 0 0 -0.426657 0.106669 0 0 0.426657 0.266217 0 0.106669 0 0 0.106669 0 0.268024 0.586209 0 0 -0.80135 0.106669 0 0 0.80135 0.959094 0 0 -0.80135 0.106669 0zm-0.106669 1.49378l0 -0.58576 -0.959094 0 0 0.959094 0.58576 0 0 -0.266665 0 -0.106669 0.106669 0 0.266665 0zm-0.373335 0.480004l-0.58576 0 0 0.959094 0.959094 0 0 -0.58576 -0.266665 0 -0.106669 0 0 -0.106669 0 -0.266665zm0.373335 1.65287l0 -0.58711 -0.959094 0 0 0.959094 0.587118 0 0 -0.265315 0 -0.106669 0.106669 0 0.265307 0zm-3.09062 -0.213327l0 0.585311 0.959094 0 0 -0.959094 -0.58711 0 0 0.267114 0 0.106669 -0.106669 0 -0.265315 0zm0.371984 -0.480453l0.58711 0 0 -0.959094 -0.959094 0 0 0.586209 0.265315 0 0.106669 0 0 0.106669 0 0.266217zm0.213327 -2.02486l-0.585311 0 0 0.959094 0.959094 0 0 -0.587118 -0.267114 0 -0.106669 0 0 -0.106669 0 -0.265307zm0.480453 0.371976l0 0.587118 0.959094 0 0 -0.959094 -0.586209 0 0 0.265307 0 0.106669 -0.106669 0 -0.266217 0zm0 2.71865l0.959094 0 0 -0.959094 -0.959094 0 0 0.959094zm0.959094 -2.02486l-0.959094 0 0 0.959094 0.959094 0 0 -0.959094z"/>
 </g>
 <rect class="fil2" width="6.82666" height="6.82666"/>
</svg>
