<?xml version="1.0" encoding="UTF-8"?>
<!DOCTYPE svg PUBLIC "-//W3C//DTD SVG 1.1//EN" "http://www.w3.org/Graphics/SVG/1.1/DTD/svg11.dtd">
<!-- Creator: CorelDRAW -->
<svg xmlns="http://www.w3.org/2000/svg" xml:space="preserve" width="6.82666in" height="6.82666in" style="shape-rendering:geometricPrecision; text-rendering:geometricPrecision; image-rendering:optimizeQuality; fill-rule:evenodd; clip-rule:evenodd"
viewBox="0 0 6.82666 6.82666"
 xmlns:xlink="http://www.w3.org/1999/xlink">
 <defs>
  <style type="text/css">
   <![CDATA[
    .fil2 {fill:none}
    .fil0 {fill:#424242}
    .fil1 {fill:#FFFFFE}
   ]]>
  </style>
 </defs>
 <rect class="fil0" width="6.82666" height="6.82666"/>
 <g id="Layer_x0020_1">
  <metadata id="CorelCorpID_0Corel-Layer"/>
  <path class="fil1" d="M3.41333 0.853331c0.706909,0 1.34691,0.286543 1.81019,0.749815 0.463272,0.463272 0.749815,1.10328 0.749815,1.81019 0,0.706909 -0.286543,1.34691 -0.749815,1.81019 -0.463272,0.463272 -1.10328,0.749815 -1.81019,0.749815 -0.706909,0 -1.34691,-0.286543 -1.81019,-0.749815 -0.463272,-0.463272 -0.749815,-1.10328 -0.749815,-1.81019 0,-0.706909 0.286543,-1.34691 0.749815,-1.81019 0.463272,-0.463272 1.10328,-0.749815 1.81019,-0.749815zm-0.106669 2.56l0 -1.81333 0 -0.106669 0.106669 0c0.530181,0 1.01019,0.214913 1.35764,0.562366 0.347453,0.347453 0.562366,0.827457 0.562366,1.35764 0,0.530177 -0.214913,1.01019 -0.562366,1.35764 -0.347449,0.347453 -0.827457,0.562366 -1.35763,0.562366l-0.106248 0 -3.93701e-006 -0.106669 -3.93701e-006 -1.81333 -0.000417323 0z"/>
 </g>
 <rect class="fil2" width="6.82666" height="6.82666"/>
</svg>
