<?xml version="1.0" encoding="UTF-8"?>
<!DOCTYPE svg PUBLIC "-//W3C//DTD SVG 1.1//EN" "http://www.w3.org/Graphics/SVG/1.1/DTD/svg11.dtd">
<!-- Creator: CorelDRAW -->
<svg xmlns="http://www.w3.org/2000/svg" xml:space="preserve" width="6.82666in" height="6.82666in" style="shape-rendering:geometricPrecision; text-rendering:geometricPrecision; image-rendering:optimizeQuality; fill-rule:evenodd; clip-rule:evenodd"
viewBox="0 0 6.82666 6.82666"
 xmlns:xlink="http://www.w3.org/1999/xlink">
 <defs>
  <style type="text/css">
   <![CDATA[
    .fil3 {fill:none}
    .fil0 {fill:#424242}
    .fil2 {fill:#FFFFFE}
    .fil1 {fill:#FFFFFE;fill-rule:nonzero}
   ]]>
  </style>
 </defs>
 <rect class="fil0" width="6.82666" height="6.82666"/>
 <g id="Layer_x0020_1">
  <metadata id="CorelCorpID_0Corel-Layer"/>
  <path class="fil1" d="M3.42296 0.862961c0.704252,0 1.34185,0.285469 1.80337,0.746996 0.461528,0.461524 0.746996,1.09912 0.746996,1.80337 0,0.704252 -0.285469,1.34185 -0.746996,1.80337 -0.461524,0.461528 -1.09912,0.746996 -1.80337,0.746996 -0.704248,0 -1.34185,-0.285469 -1.80337,-0.746996 -0.461528,-0.461524 -0.746996,-1.09912 -0.746996,-1.80337l0 -3.93701e-006 0.213339 0 0 3.93701e-006c0,0.645366 0.261583,1.22963 0.684492,1.65254 0.422906,0.422909 1.00717,0.684492 1.65254,0.684492 0.645366,0 1.22963,-0.261583 1.65254,-0.684492 0.422909,-0.422906 0.684492,-1.00717 0.684492,-1.65254 0,-0.645366 -0.261583,-1.22963 -0.684492,-1.65254 -0.422906,-0.422909 -1.00717,-0.684492 -1.65254,-0.684492l0 -0.213339z"/>
  <path class="fil1" d="M3.31629 3.30666l0 -1.69954 0 -0.106669 0.106669 0c0.528213,0 1.00644,0.21411 1.3526,0.56028 0.346169,0.346165 0.56028,0.82439 0.56028,1.3526 0,0.528213 -0.21411,1.00644 -0.56028,1.3526 -0.346165,0.346169 -0.82439,0.56028 -1.3526,0.56028 -0.528213,0 -1.00644,-0.21411 -1.3526,-0.56028 -0.346169,-0.346165 -0.56028,-0.82439 -0.56028,-1.3526l0 -0.106669 0.106669 0 1.69954 0z"/>
  <path class="fil2" d="M3.09333 3.09333l-2.24 0c0,-1.23711 1.00288,-2.24 2.24,-2.24l0 2.24z"/>
 </g>
 <rect class="fil3" width="6.82666" height="6.82666"/>
</svg>
