<?xml version="1.0" encoding="UTF-8"?>
<!DOCTYPE svg PUBLIC "-//W3C//DTD SVG 1.1//EN" "http://www.w3.org/Graphics/SVG/1.1/DTD/svg11.dtd">
<!-- Creator: CorelDRAW -->
<svg xmlns="http://www.w3.org/2000/svg" xml:space="preserve" width="6.82666in" height="6.82666in" style="shape-rendering:geometricPrecision; text-rendering:geometricPrecision; image-rendering:optimizeQuality; fill-rule:evenodd; clip-rule:evenodd"
viewBox="0 0 6.82666 6.82666"
 xmlns:xlink="http://www.w3.org/1999/xlink">
 <defs>
  <style type="text/css">
   <![CDATA[
    .fil2 {fill:none}
    .fil0 {fill:#424242}
    .fil1 {fill:#FFFFFE;fill-rule:nonzero}
   ]]>
  </style>
 </defs>
 <rect class="fil0" width="6.82666" height="6.82666"/>
 <g id="Layer_x0020_1">
  <metadata id="CorelCorpID_0Corel-Layer"/>
  <path class="fil1" d="M5.22353 1.60174c-0.437098,-0.437102 -1.03156,-0.716827 -1.69113,-0.747028l0 2.50581 2.10578 -1.21577c-0.11376,-0.199303 -0.253492,-0.381862 -0.414646,-0.543016zm-1.92927 -0.747028c-0.659567,0.0302008 -1.25403,0.309925 -1.69113,0.747028 -0.463264,0.463256 -0.749799,1.10326 -0.749799,1.8102 0,0.46087 0.121803,0.893272 0.334941,1.26681l2.10599 -1.21589 0 -2.60815zm-1.97896 4.02449c0.0859094,0.122618 0.182264,0.237382 0.287827,0.342945 0.463256,0.46326 1.10326,0.749795 1.8102,0.749795 0.706941,0 1.34694,-0.286535 1.8102,-0.749795 0.105563,-0.105559 0.201925,-0.220323 0.287827,-0.342945l-2.09803 -1.2113 -2.09803 1.2113zm4.32309 -0.200449c0.21313,-0.373547 0.334937,-0.805945 0.334937,-1.26681 0,-0.376421 -0.0812441,-0.733866 -0.22715,-1.05575l-2.0653 1.1924 1.95751 1.13016z"/>
 </g>
 <rect class="fil2" width="6.82666" height="6.82666"/>
</svg>
