<?xml version="1.0" encoding="UTF-8"?>
<!DOCTYPE svg PUBLIC "-//W3C//DTD SVG 1.1//EN" "http://www.w3.org/Graphics/SVG/1.1/DTD/svg11.dtd">
<!-- Creator: CorelDRAW -->
<svg xmlns="http://www.w3.org/2000/svg" xml:space="preserve" width="6.82666in" height="6.82666in" style="shape-rendering:geometricPrecision; text-rendering:geometricPrecision; image-rendering:optimizeQuality; fill-rule:evenodd; clip-rule:evenodd"
viewBox="0 0 6.82666 6.82666"
 xmlns:xlink="http://www.w3.org/1999/xlink">
 <defs>
  <style type="text/css">
   <![CDATA[
    .fil2 {fill:none}
    .fil0 {fill:#424242}
    .fil1 {fill:#FFFFFE;fill-rule:nonzero}
   ]]>
  </style>
 </defs>
 <rect class="fil0" width="6.82666" height="6.82666"/>
 <g id="Layer_x0020_1">
  <metadata id="CorelCorpID_0Corel-Layer"/>
  <g id="_349274944">
   <path id="_349274920" class="fil1" d="M4.6487 2.57468c-0.357094,-0.357094 -0.850433,-0.577965 -1.39537,-0.577965 -0.409402,0 -0.789669,0.124673 -1.10493,0.33811l0.364524 0.631378c0.207087,-0.153 0.463185,-0.243469 0.740409,-0.243469 0.344421,0 0.656248,0.139614 0.881972,0.365339 0.225724,0.225724 0.365339,0.537555 0.365339,0.881972 0,0.150874 -0.0267953,0.295492 -0.075878,0.429358l0.633988 0.368354c0.107933,-0.243925 0.167909,-0.513807 0.167909,-0.797713 0,-0.544933 -0.22087,-1.03827 -0.577965,-1.39537zm-2.67084 -0.110413c-0.0414685,0.0351575 -0.0814724,0.0719921 -0.119894,0.110413 -0.357094,0.357094 -0.577965,0.850433 -0.577965,1.39537 0,0.544933 0.22087,1.03827 0.577965,1.39537 0.357094,0.357094 0.850433,0.577965 1.39537,0.577965 0.544933,0 1.03827,-0.22087 1.39537,-0.577965 0.121193,-0.121193 0.226677,-0.258094 0.313173,-0.40737l-0.627862 -0.364795c-0.054815,0.0948504 -0.121748,0.181815 -0.198705,0.258772 -0.225724,0.225724 -0.537551,0.365339 -0.881972,0.365339 -0.344421,0 -0.656248,-0.139614 -0.881972,-0.365339 -0.225724,-0.225724 -0.365339,-0.537551 -0.365339,-0.881972 0,-0.33363 0.131008,-0.636685 0.344386,-0.860512l-0.372547 -0.645268z"/>
   <polygon id="_349275376" class="fil1" points="0.853331,0.883287 3.41333,0.883287 3.4575,0.883287 3.48875,0.914539 4.29194,1.71773 5.97333,1.71773 5.97333,1.93107 4.24777,1.93107 4.2036,1.93107 4.17235,1.89981 3.36917,1.09663 0.853331,1.09663 "/>
  </g>
 </g>
 <rect class="fil2" width="6.82666" height="6.82666"/>
</svg>
