<?xml version="1.0" encoding="UTF-8"?>
<!DOCTYPE svg PUBLIC "-//W3C//DTD SVG 1.1//EN" "http://www.w3.org/Graphics/SVG/1.1/DTD/svg11.dtd">
<!-- Creator: CorelDRAW -->
<svg xmlns="http://www.w3.org/2000/svg" xml:space="preserve" width="6.82666in" height="6.82666in" style="shape-rendering:geometricPrecision; text-rendering:geometricPrecision; image-rendering:optimizeQuality; fill-rule:evenodd; clip-rule:evenodd"
viewBox="0 0 6.82666 6.82666"
 xmlns:xlink="http://www.w3.org/1999/xlink">
 <defs>
  <style type="text/css">
   <![CDATA[
    .fil2 {fill:none}
    .fil0 {fill:#424242}
    .fil1 {fill:#FFFFFE;fill-rule:nonzero}
   ]]>
  </style>
 </defs>
 <rect class="fil0" width="6.82666" height="6.82666"/>
 <g id="Layer_x0020_1">
  <metadata id="CorelCorpID_0Corel-Layer"/>
  <path class="fil1" d="M5.12805 1.50865c-0.425957,-0.383724 -0.981299,-0.626591 -1.59268,-0.655256l0 0.611063c0.421138,0.0259764 0.806154,0.185449 1.11326,0.436626l0.479413 -0.392433zm-1.83676 -0.655256c-0.659157,0.0309055 -1.2532,0.310764 -1.69017,0.747728 -0.437287,0.437287 -0.717236,1.03189 -0.747791,1.69164l0.611043 0c0.0299291,-0.491173 0.241413,-0.933327 0.568236,-1.26015 0.326496,-0.326492 0.768087,-0.537898 1.25868,-0.568154l0 -0.611063zm-2.43783 2.68345c0.031252,0.658575 0.311028,1.25206 0.747661,1.68869 0.436961,0.436965 1.03101,0.716823 1.69017,0.747728l0 -0.611063c-0.490591,-0.0302559 -0.932181,-0.241661 -1.25868,-0.568154 -0.326169,-0.326173 -0.53748,-0.767205 -0.568071,-1.2572l-0.611079 0zm2.68191 2.43642c0.659157,-0.0309055 1.2532,-0.310764 1.69017,-0.747728 0.436634,-0.436634 0.716409,-1.03012 0.747661,-1.68869l-0.611079 0c-0.0305906,0.49 -0.241902,0.931031 -0.568071,1.2572 -0.326496,0.326492 -0.768087,0.537898 -1.25868,0.568154l0 0.611063zm2.43796 -2.68051c-0.0287283,-0.620291 -0.277941,-1.18297 -0.671083,-1.61149l-0.473157 0.387311c0.30685,0.322957 0.50435,0.750791 0.533197,1.22418l0.611043 0z"/>
 </g>
 <rect class="fil2" width="6.82666" height="6.82666"/>
</svg>
