<?xml version="1.0" encoding="UTF-8"?>
<!DOCTYPE svg PUBLIC "-//W3C//DTD SVG 1.1//EN" "http://www.w3.org/Graphics/SVG/1.1/DTD/svg11.dtd">
<!-- Creator: CorelDRAW -->
<svg xmlns="http://www.w3.org/2000/svg" xml:space="preserve" width="6.82666in" height="6.82666in" style="shape-rendering:geometricPrecision; text-rendering:geometricPrecision; image-rendering:optimizeQuality; fill-rule:evenodd; clip-rule:evenodd"
viewBox="0 0 6.82666 6.82666"
 xmlns:xlink="http://www.w3.org/1999/xlink">
 <defs>
  <style type="text/css">
   <![CDATA[
    .fil2 {fill:none}
    .fil0 {fill:#424242}
    .fil1 {fill:#FFFFFE;fill-rule:nonzero}
   ]]>
  </style>
 </defs>
 <rect class="fil0" width="6.82666" height="6.82666"/>
 <g id="Layer_x0020_1">
  <metadata id="CorelCorpID_0Corel-Layer"/>
  <path class="fil1" d="M2.47693 3.91942c0.309417,0.0453425 0.623752,0.0659488 0.936402,0.0659488 0.420894,0 0.850803,-0.0369134 1.26294,-0.124051l0.245331 -0.0518701 0.00932677 -0.00937008 0.0422874 -0.0120748c0.0829173,-0.0236772 0.165138,-0.050063 0.246071,-0.0798425 0.255429,-0.0939803 0.589748,-0.259791 0.754035,-0.510516l0 0.753004 3.93701e-006 0 -3.93701e-006 0.000248031 0 0.0880118 -0.00893701 0c-0.0531142,0.261646 -0.341043,0.488661 -0.779626,0.650035 -0.455161,0.167472 -1.08161,0.271059 -1.77143,0.271059 -0.689827,0 -1.31627,-0.103587 -1.77143,-0.271059 -0.438583,-0.161374 -0.726512,-0.38839 -0.779626,-0.650035l-0.00894094 0 0 -0.0882598 0 -0.753012c0.164287,0.250728 0.49861,0.416539 0.754035,0.510524 0.192413,0.0707953 0.393154,0.123413 0.594059,0.163669l0.0482441 0.00966535 0.22726 0.0379252z"/>
  <path class="fil1" d="M3.41333 1.86666c0.689827,0 1.31627,0.103587 1.77143,0.271059l0.0056378 0.00210236 -1.81415 0.63661 -0.0316693 0.0183307 -1.12351 0.979016c-0.213382,-0.0427559 -0.408343,-0.0966102 -0.579173,-0.159469 -0.487213,-0.179268 -0.788567,-0.439535 -0.788567,-0.738295 0,-0.298764 0.301354,-0.559028 0.788567,-0.738295 0.455161,-0.167472 1.08161,-0.271059 1.77143,-0.271059zm2.06101 0.398701c0.314157,0.166339 0.498988,0.376685 0.498988,0.610654 0,0.29876 -0.301354,0.559028 -0.788567,0.738295 -0.0751496,0.0276496 -0.154996,0.0535472 -0.239,0.0775354l-1.28667 -0.789843 1.81524 -0.636642zm-0.818752 1.49812c-0.366815,0.0775551 -0.790972,0.12189 -1.24226,0.12189 -0.325154,0 -0.636213,-0.0230236 -0.921902,-0.0648937l0.932665 -0.812972 1.2315 0.755976z"/>
 </g>
 <rect class="fil2" width="6.82666" height="6.82666"/>
</svg>
