<?xml version="1.0" encoding="UTF-8"?>
<!DOCTYPE svg PUBLIC "-//W3C//DTD SVG 1.1//EN" "http://www.w3.org/Graphics/SVG/1.1/DTD/svg11.dtd">
<!-- Creator: CorelDRAW -->
<svg xmlns="http://www.w3.org/2000/svg" xml:space="preserve" width="6.82666in" height="6.82666in" style="shape-rendering:geometricPrecision; text-rendering:geometricPrecision; image-rendering:optimizeQuality; fill-rule:evenodd; clip-rule:evenodd"
viewBox="0 0 6.82666 6.82666"
 xmlns:xlink="http://www.w3.org/1999/xlink">
 <defs>
  <style type="text/css">
   <![CDATA[
    .fil2 {fill:none}
    .fil0 {fill:#424242}
    .fil1 {fill:#FFFFFE;fill-rule:nonzero}
   ]]>
  </style>
 </defs>
 <rect class="fil0" width="6.82666" height="6.82666"/>
 <g id="Layer_x0020_1">
  <metadata id="CorelCorpID_0Corel-Layer"/>
  <g id="_349277536">
   <path id="_349277224" class="fil1" d="M4.8585 3.08194c0.307839,0 0.586559,0.124791 0.788299,0.326535 0.201744,0.201744 0.326535,0.480465 0.326535,0.788299 0,0.307843 -0.124791,0.586559 -0.326535,0.788303 -0.20174,0.201748 -0.480461,0.326535 -0.788299,0.326535 -0.307843,0 -0.586555,-0.124787 -0.788303,-0.326535 -0.201752,-0.201748 -0.326539,-0.480461 -0.326539,-0.788303 0,-0.10763 0.0152717,-0.211693 0.0437362,-0.310161 0.248996,-0.0518268 0.471555,-0.175768 0.644811,-0.349024 0.126012,-0.12602 0.225937,-0.278126 0.291004,-0.447504 0.0443504,-0.00537008 0.0894961,-0.00814567 0.135291,-0.00814567zm-2.89032 0c0.134193,0 0.262846,0.0237165 0.382012,0.0671811 0.0645472,0.145764 0.155421,0.277272 0.266618,0.388469 0.113205,0.113205 0.247472,0.205354 0.396394,0.270102 0.045122,0.121138 0.0698071,0.252228 0.0698071,0.389083 0,0.307843 -0.124791,0.586559 -0.326531,0.788303 -0.201748,0.201748 -0.480465,0.326535 -0.788299,0.326535 -0.307846,0 -0.586559,-0.124787 -0.788303,-0.326535 -0.201756,-0.201748 -0.326539,-0.480461 -0.326539,-0.788303 0,-0.307835 0.124783,-0.586547 0.326539,-0.788299 0.201744,-0.201744 0.480457,-0.326535 0.788303,-0.326535z"/>
   <path id="_349277368" class="fil1" d="M3.5245 1.51505c0.307839,0 0.586555,0.124787 0.788299,0.326535 0.201744,0.201744 0.326535,0.480461 0.326535,0.788299 0,0.307843 -0.124791,0.586559 -0.326535,0.788303 -0.201744,0.201748 -0.480461,0.326535 -0.788299,0.326535 -0.307843,0 -0.586559,-0.124787 -0.788303,-0.326535 -0.201752,-0.201748 -0.326539,-0.480461 -0.326539,-0.788303 0,-0.307839 0.124787,-0.586551 0.326539,-0.788299 0.201744,-0.201748 0.480461,-0.326535 0.788303,-0.326535z"/>
  </g>
 </g>
 <rect class="fil2" width="6.82666" height="6.82666"/>
</svg>
