<?xml version="1.0" encoding="UTF-8"?>
<!DOCTYPE svg PUBLIC "-//W3C//DTD SVG 1.1//EN" "http://www.w3.org/Graphics/SVG/1.1/DTD/svg11.dtd">
<!-- Creator: CorelDRAW -->
<svg xmlns="http://www.w3.org/2000/svg" xml:space="preserve" width="6.82666in" height="6.82666in" style="shape-rendering:geometricPrecision; text-rendering:geometricPrecision; image-rendering:optimizeQuality; fill-rule:evenodd; clip-rule:evenodd"
viewBox="0 0 6.82666 6.82666"
 xmlns:xlink="http://www.w3.org/1999/xlink">
 <defs>
  <style type="text/css">
   <![CDATA[
    .fil2 {fill:none}
    .fil0 {fill:#424242}
    .fil1 {fill:#FFFFFE;fill-rule:nonzero}
   ]]>
  </style>
 </defs>
 <rect class="fil0" width="6.82666" height="6.82666"/>
 <g id="Layer_x0020_1">
  <metadata id="CorelCorpID_0Corel-Layer"/>
  <path class="fil1" d="M5.22354 1.60313c-0.449906,-0.449906 -1.06652,-0.733102 -1.74925,-0.749059l0 0.487787c0.548035,0.0158346 1.04278,0.244417 1.40444,0.606083 0.112567,0.112571 0.21222,0.238039 0.296606,0.373984l0.422528 -0.243945c-0.105906,-0.172882 -0.231724,-0.332252 -0.374323,-0.47485zm-1.87116 -0.749059c-0.682728,0.0159567 -1.29935,0.299154 -1.74925,0.749059 -0.142598,0.142598 -0.268425,0.301965 -0.374323,0.47485l0.422528 0.243945c0.0843858,-0.135949 0.184039,-0.261413 0.296606,-0.373984 0.361665,-0.361665 0.856406,-0.590248 1.40444,-0.606083l0 -0.487787zm-2.18461 1.32909c-0.200417,0.365071 -0.314433,0.784295 -0.314433,1.23017 0,0.443465 0.112768,0.860567 0.311169,1.22424l0.422543 -0.243953c-0.157,-0.291866 -0.246102,-0.625673 -0.246102,-0.980291 0,-0.357031 0.0903031,-0.692976 0.249295,-0.986256l-0.422472 -0.243913zm0.0574921 2.55976c0.10663,0.175114 0.233685,0.336425 0.37787,0.48061 0.449906,0.449906 1.06652,0.733102 1.74925,0.749059l0 -0.487787c-0.548035,-0.0158346 -1.04278,-0.244417 -1.40444,-0.606083 -0.114154,-0.114157 -0.215016,-0.241587 -0.300157,-0.379744l-0.422524 0.243945zm2.24903 1.22967c0.682728,-0.0159567 1.29935,-0.299154 1.74925,-0.749059 0.144185,-0.144185 0.27124,-0.305492 0.37787,-0.48061l-0.422524 -0.243945c-0.0851339,0.138161 -0.186004,0.265587 -0.300157,0.379744 -0.361665,0.361665 -0.856406,0.590248 -1.40444,0.606083l0 0.487787zm2.18788 -1.33502c0.198398,-0.363673 0.311169,-0.780783 0.311169,-1.22424 0,-0.445874 -0.114012,-0.865102 -0.314433,-1.23017l-0.422472 0.243913c0.158996,0.293276 0.249295,0.629228 0.249295,0.986256 0,0.354618 -0.0891024,0.688425 -0.246102,0.980291l0.422543 0.243953zm-2.18788 -2.37622c0.294276,0.0153228 0.559382,0.140937 0.75474,0.336287 0.0559724,0.0559764 0.106217,0.117685 0.149783,0.184157l0.585256 -0.337898c-0.0736024,-0.117488 -0.160169,-0.226028 -0.257724,-0.323575 -0.317524,-0.317531 -0.751327,-0.518783 -1.23206,-0.534531l0 0.675559zm0.96574 0.625528c0.0810984,0.157835 0.126882,0.336803 0.126882,0.526453 0,0.18724 -0.0446339,0.364059 -0.123815,0.520417l0.585252 0.337894c0.136299,-0.255941 0.213563,-0.548098 0.213563,-0.858311 0,-0.312626 -0.0784764,-0.606913 -0.21676,-0.864276l-0.585122 0.337823zm-0.0575276 1.15231c-0.0444055,0.0686417 -0.0959094,0.132268 -0.153472,0.189835 -0.195358,0.19535 -0.460465,0.320965 -0.75474,0.336287l0 0.675559c0.480728,-0.015748 0.914531,-0.217 1.23206,-0.534531 0.0991417,-0.0991339 0.186941,-0.209618 0.261303,-0.329319l-0.585146 -0.337831zm-1.03012 0.526122c-0.294276,-0.0153228 -0.559382,-0.140937 -0.75474,-0.336287 -0.057563,-0.0575669 -0.109055,-0.121197 -0.153472,-0.189835l-0.585146 0.337831c0.0743701,0.119701 0.162161,0.230185 0.261303,0.329319 0.317524,0.317531 0.751327,0.518783 1.23206,0.534531l0 -0.675559zm-0.968807 -0.631563c-0.079185,-0.156358 -0.123815,-0.333177 -0.123815,-0.520417 0,-0.189654 0.0457835,-0.368618 0.126886,-0.526453l-0.585126 -0.337823c-0.138283,0.257366 -0.21676,0.55165 -0.21676,0.864276 0,0.310213 0.0772677,0.602374 0.213563,0.858311l0.585252 -0.337894zm0.0642835 -1.15195c0.0435669,-0.0664724 0.093811,-0.128177 0.149783,-0.184157 0.195358,-0.19535 0.460465,-0.320965 0.75474,-0.336287l0 -0.675559c-0.480728,0.015748 -0.914531,0.217 -1.23206,0.534531 -0.0975551,0.0975512 -0.184126,0.206083 -0.257724,0.323575l0.585256 0.337898zm1.60878 -0.0117717c-0.151205,-0.151201 -0.355402,-0.249413 -0.582354,-0.264429l0 0.798429 0.692949 -0.400075c-0.0325787,-0.0481299 -0.0696378,-0.0929685 -0.110594,-0.133925zm-0.70426 -0.264429c-0.226953,0.0150157 -0.43115,0.113228 -0.582354,0.264429 -0.0409528,0.0409488 -0.0780197,0.0857992 -0.110598,0.133925l0.692953 0.400075 0 -0.798429zm-0.754244 0.50339c-0.0605276,0.121799 -0.0945591,0.259098 -0.0945591,0.404346 0,0.142835 0.0329252,0.27798 0.0915827,0.398256l0.696563 -0.402161 -0.693587 -0.400441zm0.0575236 0.908098c0.0334803,0.0502638 0.0718228,0.0970079 0.114366,0.139555 0.151205,0.151201 0.355402,0.249413 0.582354,0.264429l0 -0.806236 -0.69672 0.402252zm0.818626 0.403984c0.226953,-0.0150157 0.43115,-0.113228 0.582354,-0.264429 0.0425472,-0.0425472 0.0808858,-0.0892913 0.114362,-0.139555l-0.696717 -0.402252 0 0.806236zm0.75722 -0.50948c0.0586575,-0.12028 0.0915827,-0.255417 0.0915827,-0.398256 0,-0.145244 -0.0340276,-0.282543 -0.0945551,-0.404346l-0.693591 0.400445 0.696563 0.402157z"/>
 </g>
 <rect class="fil2" width="6.82666" height="6.82666"/>
</svg>
