<?xml version="1.0" encoding="UTF-8"?>
<!DOCTYPE svg PUBLIC "-//W3C//DTD SVG 1.1//EN" "http://www.w3.org/Graphics/SVG/1.1/DTD/svg11.dtd">
<!-- Creator: CorelDRAW -->
<svg xmlns="http://www.w3.org/2000/svg" xml:space="preserve" width="6.82666in" height="6.82666in" style="shape-rendering:geometricPrecision; text-rendering:geometricPrecision; image-rendering:optimizeQuality; fill-rule:evenodd; clip-rule:evenodd"
viewBox="0 0 6.82666 6.82666"
 xmlns:xlink="http://www.w3.org/1999/xlink">
 <defs>
  <style type="text/css">
   <![CDATA[
    .fil2 {fill:none}
    .fil0 {fill:#424242}
    .fil1 {fill:#FFFFFE;fill-rule:nonzero}
   ]]>
  </style>
 </defs>
 <rect class="fil0" width="6.82666" height="6.82666"/>
 <g id="Layer_x0020_1">
  <metadata id="CorelCorpID_0Corel-Layer"/>
  <path class="fil1" d="M5.74149 2.90324l-2.27482 -1.65276 0 0.566909c0.0746575,0.0114961 0.141488,0.0467402 0.192531,0.0977835 0.0629291,0.0629291 0.101854,0.149858 0.101854,0.245866 0,0.0295197 -0.00368898,0.0581772 -0.0106142,0.0855472l0.398331 0.289406 0.394165 0.286374c0.0521024,-0.0311378 0.11302,-0.0490433 0.178122,-0.0490433 0.0960079,0 0.182937,0.0389252 0.245866,0.101854 0.0629291,0.0629291 0.101854,0.149858 0.101854,0.245866 0,0.0925354 -0.0361654,0.176642 -0.0951299,0.238949l0.619433 0 0.148409 -0.456752zm-2.38149 -1.08585l0 -0.566909 -2.27482 1.65276 0.148409 0.456752 0.568213 0c-0.0589646,-0.0623071 -0.0951299,-0.146413 -0.0951299,-0.238949 0,-0.0960079 0.0389252,-0.182937 0.101854,-0.245866 0.0629291,-0.0629291 0.149858,-0.101854 0.245866,-0.101854 0.0766181,0 0.147449,0.0247913 0.204921,0.0667874l0.418587 -0.304118 0.398331 -0.289406c-0.0069252,-0.0273701 -0.0106142,-0.0560276 -0.0106142,-0.0855472 0,-0.0960079 0.0389252,-0.182937 0.101854,-0.245866 0.0510433,-0.0510433 0.11787,-0.0862874 0.192531,-0.0977835zm-1.05302 1.5426l0.48265 0 -0.0108819 -0.0334882 -0.0239213 -0.0736299 0.0626732 -0.0455394 0.266669 -0.193744 0.266665 -0.193744 0.00916535 -0.00665748 0 -0.3085c-0.0642087,-0.00988976 -0.122622,-0.0373425 -0.170189,-0.0773031l-0.386913 0.28111 -0.418142 0.303799 -2.3622e-005 -6.69291e-005c0.0112756,0.0342362 0.017378,0.070815 0.017378,0.108815 0,0.0925354 -0.0361654,0.176642 -0.0951299,0.238949zm0.706543 0l0.346476 0 0 -0.283484 -0.150831 0.109587 -0.203992 0.148209 0.00834646 0.025689zm0.453146 -0.855303l0 0.3085 0.00916535 0.00665748 0.266665 0.193744 0.266669 0.193744 0.0626732 0.0455394 -0.0239213 0.0736299 -0.0108819 0.0334882 0.431429 0c-0.0589646,-0.0623071 -0.0951299,-0.146413 -0.0951299,-0.238949 0,-0.049 0.0101417,-0.095626 0.028437,-0.137913l-0.378004 -0.274634 -0.386913 -0.28111c-0.0475669,0.0399606 -0.105976,0.0674094 -0.170189,0.0773031zm0 0.571819l0 0.283484 0.346476 0 0.00834646 -0.025689 -0.203992 -0.148209 -0.150831 -0.109587zm-1.31725 -0.0504961c-0.024311,-0.024311 -0.0579094,-0.0393504 -0.0950315,-0.0393504 -0.037122,0 -0.0707205,0.0150394 -0.0950315,0.0393504 -0.024311,0.024311 -0.0393504,0.0579094 -0.0393504,0.0950315 0,0.0371181 0.0150394,0.0707205 0.0393504,0.0950315 0.024311,0.024311 0.0579094,0.0393504 0.0950315,0.0393504 0.037122,0 0.0707205,-0.0150394 0.0950315,-0.0393504 0.024311,-0.024311 0.0393504,-0.0579134 0.0393504,-0.0950315 0,-0.037122 -0.0150394,-0.0707205 -0.0393504,-0.0950315zm2.66667 0c-0.024311,-0.024311 -0.0579094,-0.0393504 -0.0950315,-0.0393504 -0.037122,0 -0.0707205,0.0150394 -0.0950315,0.0393504 -0.024311,0.024311 -0.0393504,0.0579094 -0.0393504,0.0950315 0,0.0371181 0.0150394,0.0707205 0.0393504,0.0950315 0.024311,0.024311 0.0579094,0.0393504 0.0950315,0.0393504 0.037122,0 0.0707205,-0.0150394 0.0950315,-0.0393504 0.024311,-0.024311 0.0393504,-0.0579134 0.0393504,-0.0950315 0,-0.037122 -0.0150394,-0.0707205 -0.0393504,-0.0950315zm-1.30772 -0.960004c-0.024311,-0.024311 -0.0579094,-0.0393504 -0.0950315,-0.0393504 -0.037122,0 -0.0707205,0.0150394 -0.0950315,0.0393504 -0.024311,0.024311 -0.0393504,0.0579094 -0.0393504,0.0950315 0,0.0371181 0.0150394,0.0707205 0.0393504,0.0950315 0.024311,0.024311 0.0579094,0.0393504 0.0950315,0.0393504 0.037122,0 0.0707205,-0.0150394 0.0950315,-0.0393504 0.024311,-0.024311 0.0393504,-0.0579134 0.0393504,-0.0950315 0,-0.037122 -0.0150394,-0.0707205 -0.0393504,-0.0950315zm0.77439 2.50456c-0.024311,-0.024311 -0.0579094,-0.0393504 -0.0950315,-0.0393504 -0.037122,0 -0.0707205,0.0150394 -0.0950315,0.0393504 -0.024311,0.024311 -0.0393504,0.0579094 -0.0393504,0.0950315 0,0.0371181 0.0150394,0.0707205 0.0393504,0.0950315 0.024311,0.024311 0.0579094,0.0393504 0.0950315,0.0393504 0.037122,0 0.0707205,-0.0150394 0.0950315,-0.0393504 0.024311,-0.024311 0.0393504,-0.0579134 0.0393504,-0.0950315 0,-0.037122 -0.0150394,-0.0707205 -0.0393504,-0.0950315zm-1.54878 0c-0.024311,-0.024311 -0.0579094,-0.0393504 -0.0950315,-0.0393504 -0.037122,0 -0.0707205,0.0150394 -0.0950315,0.0393504 -0.024311,0.024311 -0.0393504,0.0579094 -0.0393504,0.0950315 0,0.0371181 0.0150394,0.0707205 0.0393504,0.0950315 0.024311,0.024311 0.0579094,0.0393504 0.0950315,0.0393504 0.037122,0 0.0707205,-0.0150394 0.0950315,-0.0393504 0.024311,-0.024311 0.0393504,-0.0579134 0.0393504,-0.0950315 0,-0.037122 -0.0150394,-0.0707205 -0.0393504,-0.0950315zm0.931579 -2.17019c0.00165354,-0.00174409 0.00328346,-0.0035 0.00490157,-0.00527559 -0.00161811,0.00177559 -0.00325197,0.0035315 -0.00490157,0.00527559zm-0.50935 -0.00527559c0.00161811,0.00177559 0.00324803,0.00353543 0.00490157,0.00527559 -0.00165354,-0.00174016 -0.0032874,-0.00350394 -0.00490157,-0.00527559zm-0.826016 0.514177c-0.00153937,-0.00200394 -0.00310236,-0.00398819 -0.0046811,-0.00595669 0.00157874,0.0019685 0.00314173,0.00395669 0.0046811,0.00595669zm-1.06195 0.557382l0.706134 2.17326 1.38562 0 0 -0.839913 -0.400272 0c-0.0176102,0.0419764 -0.0432283,0.0797795 -0.0749134,0.111465 -0.0629291,0.0629291 -0.149858,0.101854 -0.245866,0.101854 -0.0960079,0 -0.182937,-0.0389252 -0.245866,-0.101854 -0.0629291,-0.0629291 -0.101854,-0.149862 -0.101854,-0.245866 0,-0.0912795 0.035185,-0.174346 0.0927323,-0.23639l-0.000141732 0.000153543 -0.160575 -0.494201 -0.151681 -0.466823c-0.00569291,0.000275591 -0.0114134,0.00042126 -0.0171732,0.00042126 -0.0129764,0 -0.0257835,-0.000720472 -0.0383898,-0.00210236l-0.747756 0zm1.7151 1.24721c0.000362205,-0.00259843 0.000692913,-0.0052126 0.000996063,-0.00783465 -0.00030315,0.00262205 -0.000633858,0.00523228 -0.000996063,0.00783465zm0.00259449 -0.0709961c-0.000181102,-0.00279921 -0.000393701,-0.00559055 -0.000641732,-0.00837402 0.000248031,0.00277953 0.00046063,0.0055748 0.000641732,0.00837402zm-0.00438189 -0.0369921c-0.000334646,-0.00194488 -0.000688976,-0.00388189 -0.00105906,-0.00581496 0.000370079,0.00193307 0.000724409,0.00387008 0.00105906,0.00581496zm-0.00388976 -0.0192165l0.382335 0 0 -0.559437 -0.276283 0 -0.0772874 0 -0.0239646 -0.073752 -0.101858 -0.313488 -0.0563189 -0.173327 -0.529374 0 0.130835 0.402669 0.147744 0.454709c0.0212008,-0.00403937 0.0430827,-0.00615748 0.0654567,-0.00615748 0.0960079,0 0.182937,0.0389252 0.245866,0.101854 0.0451299,0.0451339 0.0779173,0.10261 0.0928504,0.166929zm0.382335 -0.772776l0 -0.347228 -0.311815 0 0.0349252 0.107492 0.0778937 0.239736 0.198996 0zm-1.26754 -0.347193l0.000330709 -3.54331e-005 -1.1811e-005 0 -0.000318898 3.54331e-005zm1.37421 2.17322l1.38562 0 0.706134 -2.17326 -0.798976 0 -0.00392913 0.000409449 -0.152094 0.468094 -0.160575 0.494201c0.0574646,0.0620276 0.0925945,0.145031 0.0925945,0.236236 0,0.0960039 -0.0389252,0.182937 -0.101854,0.245866 -0.0629291,0.0629291 -0.149858,0.101854 -0.245866,0.101854 -0.0960079,0 -0.182937,-0.0389252 -0.245866,-0.101854 -0.0317008,-0.0317008 -0.0573031,-0.0694921 -0.0749134,-0.111465l-3.93701e-006 0 -0.400272 0 0 0.839913zm1.216 -2.17326l-5.90551e-005 0 0.00237008 0.000251969 -0.00231102 -0.000251969zm-0.429492 0.857378l0.147744 -0.454709 0.130835 -0.402669 -0.529374 0 -0.0563189 0.173327 -0.101858 0.313488 -0.0239646 0.073752 -0.0772874 0 -0.276283 0 0 0.559437 0.382339 0c0.0149252,-0.0643268 0.0477283,-0.121807 0.0928504,-0.166929 0.0629291,-0.0629291 0.149858,-0.101854 0.245866,-0.101854 0.022374,0 0.0442559,0.00211811 0.0654528,0.00615748zm-0.474693 -0.857378l-0.311815 0 0 0.347228 0.198996 0 0.0778937 -0.239736 0.0349252 -0.107492zm0.0676929 1.13341c-0.000374016,0.00193307 -0.000720472,0.00387008 -0.00105906,0.00581496 0.000338583,-0.00194488 0.000688976,-0.00388189 0.00105906,-0.00581496zm-0.00479921 0.0344331c-0.000244094,0.00277953 -0.00046063,0.0055748 -0.000641732,0.00837402 0.000181102,-0.00279921 0.000393701,-0.00559055 0.000641732,-0.00837402zm0.000956693 0.0715354c0.00030315,0.00261811 0.000633858,0.00523228 0.000996063,0.00783465 -0.000362205,-0.00260236 -0.000692913,-0.00521654 -0.000996063,-0.00783465z"/>
 </g>
 <rect class="fil2" width="6.82666" height="6.82666"/>
</svg>
