<?xml version="1.0" encoding="UTF-8"?>
<!DOCTYPE svg PUBLIC "-//W3C//DTD SVG 1.1//EN" "http://www.w3.org/Graphics/SVG/1.1/DTD/svg11.dtd">
<!-- Creator: CorelDRAW -->
<svg xmlns="http://www.w3.org/2000/svg" xml:space="preserve" width="6.82666in" height="6.82666in" style="shape-rendering:geometricPrecision; text-rendering:geometricPrecision; image-rendering:optimizeQuality; fill-rule:evenodd; clip-rule:evenodd"
viewBox="0 0 6.82666 6.82666"
 xmlns:xlink="http://www.w3.org/1999/xlink">
 <defs>
  <style type="text/css">
   <![CDATA[
    .fil3 {fill:none}
    .fil0 {fill:#424242}
    .fil1 {fill:#FFFFFE}
    .fil2 {fill:#FFFFFE;fill-rule:nonzero}
   ]]>
  </style>
 </defs>
 <rect class="fil0" width="6.82666" height="6.82666"/>
 <g id="Layer_x0020_1">
  <metadata id="CorelCorpID_0Corel-Layer"/>
  <g id="_349284736">
   <path id="_349286392" class="fil1" d="M4.13435 4.78945l0 1.18388 -1.43337 0 0 -1.17426c0.00840157,0.00508661 0.0169449,0.00991732 0.0255276,0.0144882 0.17235,0.0918307 0.427252,0.121969 0.6235,0.126823 0.211736,0.00523228 0.46735,-0.0158858 0.66413,-0.0913504 0.0402047,-0.0154252 0.0826535,-0.0348228 0.120213,-0.0595866z"/>
   <path id="_349286224" class="fil2" d="M4.74201 0.98848c-0.338543,-0.0835039 -0.808193,-0.13515 -1.32868,-0.13515 -0.520488,0 -0.990138,0.0516457 -1.32868,0.13515 -0.294819,0.0727205 -0.477181,0.153122 -0.477181,0.223965 0,0.0708386 0.182362,0.151244 0.477181,0.223961 0.338543,0.0835039 0.808193,0.135154 1.32868,0.135154 0.520488,0 0.990138,-0.0516496 1.32868,-0.135154 0.294819,-0.0727165 0.477181,-0.153122 0.477181,-0.223961 0,-0.0708425 -0.182362,-0.151244 -0.477181,-0.223965z"/>
   <path id="_349286872" class="fil2" d="M2.38089 3.72468c0.0998622,0.288063 0.201492,0.562815 0.304945,0.812087 0.0133583,0.0321654 0.0464528,0.0621929 0.0935433,0.0893543 0.13185,0.0760512 0.348098,0.117146 0.573465,0.123181 0.227937,0.00609843 0.460138,-0.0241732 0.620732,-0.0908504 0.0755354,-0.0313583 0.131024,-0.0683898 0.155055,-0.110051 0.0765433,-0.132713 0.193984,-0.445516 0.325835,-0.832004 -0.368406,0.117748 -0.728567,0.173894 -1.08095,0.171957 -0.339469,-0.0018622 -0.670177,-0.0574606 -0.992622,-0.163673z"/>
   <path id="_349286728" class="fil2" d="M2.01315 2.60119c0.0897283,0.284055 0.180957,0.569799 0.273724,0.847177 0.353441,0.139713 0.715756,0.213094 1.0876,0.21513 0.378031,0.0020748 0.768205,-0.0693504 1.17137,-0.219433 0.0898661,-0.27178 0.183358,-0.56489 0.273016,-0.849358 -0.498236,0.127114 -0.984087,0.187701 -1.45828,0.185713 -0.460752,-0.00192913 -0.909657,-0.0628937 -1.34743,-0.179228z"/>
   <path id="_349286488" class="fil2" d="M5.16691 1.48763c-0.0902441,0.0364173 -0.195433,0.0687677 -0.313362,0.0965157 -0.371102,0.0873189 -0.88176,0.141327 -1.44398,0.141327 -0.562224,0 -1.07288,-0.0540079 -1.44398,-0.141327 -0.114673,-0.0269803 -0.217291,-0.058315 -0.305835,-0.0935118 0.0892913,0.272091 0.179846,0.55965 0.271992,0.852291 0.463906,0.138087 0.940197,0.210591 1.42979,0.212642 0.49739,0.00208661 1.00962,-0.0684803 1.53771,-0.216732 0.0248701,-0.0793543 0.0492441,-0.15728 0.0729291,-0.233 0.072937,-0.233165 0.139469,-0.445858 0.194744,-0.618205z"/>
  </g>
 </g>
 <rect class="fil3" width="6.82666" height="6.82666"/>
</svg>
