<?xml version="1.0" encoding="UTF-8"?>
<!DOCTYPE svg PUBLIC "-//W3C//DTD SVG 1.1//EN" "http://www.w3.org/Graphics/SVG/1.1/DTD/svg11.dtd">
<!-- Creator: CorelDRAW -->
<svg xmlns="http://www.w3.org/2000/svg" xml:space="preserve" width="6.82666in" height="6.82666in" style="shape-rendering:geometricPrecision; text-rendering:geometricPrecision; image-rendering:optimizeQuality; fill-rule:evenodd; clip-rule:evenodd"
viewBox="0 0 6.82666 6.82666"
 xmlns:xlink="http://www.w3.org/1999/xlink">
 <defs>
  <style type="text/css">
   <![CDATA[
    .fil2 {fill:none}
    .fil0 {fill:#424242}
    .fil1 {fill:#FFFFFE;fill-rule:nonzero}
   ]]>
  </style>
 </defs>
 <rect class="fil0" width="6.82666" height="6.82666"/>
 <g id="Layer_x0020_1">
  <metadata id="CorelCorpID_0Corel-Layer"/>
  <polygon class="fil1" points="0.972783,0.860717 2.39313,0.860717 2.4998,0.860717 2.4998,0.967386 2.4998,2.38774 2.4998,2.49441 2.39313,2.49441 0.972783,2.49441 0.866114,2.49441 0.866114,2.38774 0.866114,0.967386 0.866114,0.860717 "/>
  <polygon class="fil1" points="0.972783,4.34703 2.39313,4.34703 2.4998,4.34703 2.4998,4.4537 2.4998,5.87405 2.4998,5.98072 2.39313,5.98072 0.972783,5.98072 0.866114,5.98072 0.866114,5.87405 0.866114,4.4537 0.866114,4.34703 "/>
  <path class="fil1" d="M4.31211 2.53037l1.42035 0 0.106669 0 0 0.106669 0 1.42035 0 0.106669 -0.106669 0 -1.42035 0 -0.106669 0 0 -0.106669 0 -1.42035 0 -0.106669 0.106669 0zm1.31368 0.213339l-1.20701 0 0 1.20701 1.20701 0 0 -1.20701z"/>
  <polygon class="fil1" points="2.7805,1.49739 4.97559,1.49739 5.08226,1.49739 5.08226,1.60406 5.08226,2.24967 4.86892,2.24967 4.86892,1.71072 2.7805,1.71072 "/>
  <polygon class="fil1" points="2.7805,4.9837 4.86892,4.9837 4.86892,4.44476 5.08226,4.44476 5.08226,5.09037 5.08226,5.19704 4.97559,5.19704 2.7805,5.19704 "/>
 </g>
 <rect class="fil2" width="6.82666" height="6.82666"/>
</svg>
