<?xml version="1.0" encoding="UTF-8"?>
<!DOCTYPE svg PUBLIC "-//W3C//DTD SVG 1.1//EN" "http://www.w3.org/Graphics/SVG/1.1/DTD/svg11.dtd">
<!-- Creator: CorelDRAW -->
<svg xmlns="http://www.w3.org/2000/svg" xml:space="preserve" width="6.82666in" height="6.82666in" style="shape-rendering:geometricPrecision; text-rendering:geometricPrecision; image-rendering:optimizeQuality; fill-rule:evenodd; clip-rule:evenodd"
viewBox="0 0 6.82666 6.82666"
 xmlns:xlink="http://www.w3.org/1999/xlink">
 <defs>
  <style type="text/css">
   <![CDATA[
    .fil2 {fill:none}
    .fil0 {fill:#424242}
    .fil1 {fill:#FFFFFE;fill-rule:nonzero}
   ]]>
  </style>
 </defs>
 <rect class="fil0" width="6.82666" height="6.82666"/>
 <g id="Layer_x0020_1">
  <metadata id="CorelCorpID_0Corel-Layer"/>
  <g id="_349288504">
   <polygon id="_349289464" class="fil1" points="2.9043,1.15119 5.2095,1.15119 5.31617,1.15119 5.31617,1.25786 5.31617,3.38652 5.31617,3.49319 5.2095,3.49319 3.08989,3.49319 3.19656,3.38652 3.08989,3.27985 5.10283,3.27985 5.10283,1.36453 2.9043,1.36453 "/>
   <polygon id="_349288720" class="fil1" points="2.38949,1.87934 2.38949,2.57944 2.28283,2.47278 2.17615,2.57946 2.17615,1.87934 "/>
   <polygon id="_349289200" class="fil1" points="2.38949,4.1936 2.38949,4.95493 2.17615,4.95493 2.17615,4.19359 2.28283,4.30026 "/>
   <polygon id="_349288888" class="fil1" points="1.85818,0.853327 2.70746,0.853327 2.81413,0.853327 2.81413,0.959996 2.81413,1.68795 2.81413,1.79462 2.70746,1.79462 1.85818,1.79462 1.75151,1.79462 1.75151,1.68795 1.75151,0.959996 1.75151,0.853327 "/>
   <polygon id="_349289056" class="fil1" points="1.85818,5.03204 2.70746,5.03204 2.81413,5.03204 2.81413,5.13871 2.81413,5.86667 2.81413,5.97333 2.70746,5.97333 1.85818,5.97333 1.75151,5.97333 1.75151,5.86667 1.75151,5.13871 1.75151,5.03204 "/>
   <polygon id="_349288576" class="fil1" points="2.35824,2.68962 2.66898,3.00036 2.97972,3.3111 3.05514,3.38652 2.97972,3.46194 2.66898,3.77268 2.35824,4.08343 2.28282,4.15884 2.2074,4.08343 1.89666,3.77268 1.58591,3.46194 1.5105,3.38652 1.58591,3.3111 1.89666,3.00036 2.2074,2.68962 2.28282,2.6142 "/>
  </g>
 </g>
 <rect class="fil2" width="6.82666" height="6.82666"/>
</svg>
