<?xml version="1.0"?><svg fill="#000000" xmlns="http://www.w3.org/2000/svg"  viewBox="0 0 24 24" width="24px" height="24px">    <path d="M 5 3 C 3.895 3 3 3.895 3 5 L 3 7 L 3 19 C 3 20.093063 3.9069372 21 5 21 L 19 21 C 20.093063 21 21 20.093063 21 19 L 21 6 L 21 5 C 21 3.895 20.105 3 19 3 L 5 3 z M 5 7 L 19 7 L 19 19 L 5 19 L 5 7 z M 10 10.085938 C 9.819 10.085938 9.638 10.154969 9.5 10.292969 L 7.5 12.292969 C 7.109 12.682969 7.109 13.316031 7.5 13.707031 L 9.5 15.707031 C 9.776 15.983031 10.224 15.983031 10.5 15.707031 C 10.776 15.431031 10.776 14.983031 10.5 14.707031 L 8.7929688 13 L 10.5 11.292969 C 10.776 11.016969 10.776 10.568969 10.5 10.292969 C 10.362 10.154969 10.181 10.085938 10 10.085938 z M 14 10.085938 C 13.819 10.085938 13.638 10.154969 13.5 10.292969 C 13.224 10.568969 13.224 11.016969 13.5 11.292969 L 15.207031 13 L 13.5 14.707031 C 13.224 14.983031 13.224 15.431031 13.5 15.707031 C 13.776 15.983031 14.224 15.983031 14.5 15.707031 L 16.5 13.707031 C 16.891 13.316031 16.891 12.682969 16.5 12.292969 L 14.5 10.292969 C 14.362 10.154969 14.181 10.085938 14 10.085938 z"/></svg>