<?xml version="1.0"?><svg fill="#000000" xmlns="http://www.w3.org/2000/svg"  viewBox="0 0 24 24" width="24px" height="24px">    <path d="M 7 2 C 5.346 2 4 3.346 4 5 C 4 6.3016094 4.8387486 7.4021391 6 7.8164062 L 6 15 L 6 16.183594 C 4.8387486 16.597861 4 17.698391 4 19 C 4 20.654 5.346 22 7 22 C 8.654 22 10 20.654 10 19 C 10 17.698391 9.1612514 16.597861 8 16.183594 L 8 15 C 8 14.416667 8.2768974 14.089453 9.0664062 13.628906 C 9.8559151 13.168359 11.066064 12.760764 12.330078 12.318359 C 13.594092 11.875954 14.918941 11.398132 16.019531 10.609375 C 16.914759 9.9677956 17.655875 9.0256499 17.904297 7.8457031 C 19.114653 7.4592359 20 6.3367217 20 5 C 20 3.346 18.654 2 17 2 C 15.346 2 14 3.346 14 5 C 14 6.2519861 14.772996 7.3245811 15.865234 7.7734375 C 15.700131 8.2456929 15.377402 8.6103229 14.855469 8.984375 C 14.081059 9.5393685 12.905908 9.9990452 11.669922 10.431641 C 10.433936 10.864236 9.1440849 11.269141 8.0585938 11.902344 C 8.0382791 11.914194 8.0202303 11.931219 8 11.943359 L 8 7.8164062 C 9.1612514 7.4021391 10 6.3016094 10 5 C 10 3.346 8.654 2 7 2 z"/></svg>