<?xml version="1.0"?><svg fill="#000000" xmlns="http://www.w3.org/2000/svg"  viewBox="0 0 24 24" width="24px" height="24px">    <path d="M 6 2 C 4.895 2 4 2.895 4 4 L 4 20 C 4 21.105 4.895 22 6 22 L 9 22 C 9.552 22 10 21.552 10 21 L 10 15 C 10 13.895 10.895 13 12 13 L 13.826172 13 C 13.962172 12.898 14.085703 12.805125 14.220703 12.703125 C 14.384703 12.192125 14.672734 11.611469 15.177734 11.105469 C 15.681734 10.601469 16.580953 10 18.001953 10 L 19 10 C 19.552 10 20 9.552 20 9 L 20 8.4140625 C 20 8.1490625 19.895031 7.8940313 19.707031 7.7070312 L 14.292969 2.2929688 C 14.104969 2.1049687 13.850937 2 13.585938 2 L 6 2 z M 13 3.5 L 18.5 9 L 14 9 C 13.448 9 13 8.552 13 8 L 13 3.5 z M 18.001953 12 C 15.999953 12 16.003906 14 16.003906 14 C 15.686 14 15.270706 14.385078 14.898438 15 L 13 15 C 12.448 15 12 15.448 12 16 C 12 16.552 12.448 17 13 17 L 14.150391 17 C 14.08594 17.319436 14.044819 17.653119 14.025391 18 L 13 18 C 12.448 18 12 18.448 12 19 C 12 19.552 12.448 20 13 20 L 14.117188 20 C 14.167637 20.355561 14.230138 20.694036 14.314453 21 L 13 21 C 12.448 21 12 21.448 12 22 C 12 22.552 12.448 23 13 23 L 15.376953 23 C 16.03337 23.674253 16.898527 24 17.917969 24 L 18 24 C 19.176076 24 20.084249 23.681121 20.736328 23 L 23 23 C 23.552 23 24 22.552 24 22 C 24 21.448 23.552 21 23 21 L 21.730469 21 C 21.804655 20.694691 21.85747 20.356139 21.900391 20 L 23 20 C 23.552 20 24 19.552 24 19 C 24 18.448 23.552 18 23 18 L 21.974609 18 C 21.955227 17.653119 21.913913 17.319436 21.849609 17 L 23 17 C 23.552 17 24 16.552 24 16 C 24 15.448 23.552 15 23 15 L 21.103516 15 C 20.732024 14.385078 20.317473 14 20 14 C 20 14 20.002953 12 18.001953 12 z M 16.615234 16 L 18.005859 16 L 19.386719 16 C 19.641719 16.418 20 17.278859 20 18.380859 C 20 22.000859 18.937 22 18 22 L 17.917969 22 C 17.392969 22 16 22.000859 16 18.380859 C 16 17.278859 16.359234 16.418 16.615234 16 z"/></svg>