<svg fill="#000000" xmlns="http://www.w3.org/2000/svg"  viewBox="0 0 24 24" width="24px" height="24px"><path d="M 10.994141 1.9824219 C 6.0341704 1.9824219 1.9941406 6.0224519 1.9941406 10.982422 C 1.9941406 15.942392 6.0341704 19.982422 10.994141 19.982422 C 12.964962 19.982422 14.784932 19.337784 16.269531 18.257812 L 19.498047 21.486328 C 20.049047 22.037328 20.941188 22.037328 21.492188 21.486328 L 21.498047 21.480469 C 22.049047 20.929469 22.049047 20.036328 21.498047 19.486328 L 18.269531 16.257812 C 19.349503 14.773214 19.994141 12.953244 19.994141 10.982422 C 19.994141 6.0224519 15.95411 1.9824219 10.994141 1.9824219 z M 10.994141 3.9824219 C 14.874171 3.9824219 17.994141 7.1023916 17.994141 10.982422 C 17.994141 14.862452 14.874171 17.982422 10.994141 17.982422 C 7.1141101 17.982422 3.9941406 14.862452 3.9941406 10.982422 C 3.9941406 7.1023916 7.1141101 3.9824219 10.994141 3.9824219 z M 8.6269531 7.8320312 C 8.244125 7.7589531 7.8376719 7.9147656 7.6074219 8.2597656 L 6.1621094 10.427734 C 5.9381094 10.763734 5.9381094 11.201109 6.1621094 11.537109 L 7.6074219 13.705078 C 7.9144219 14.165078 8.5341406 14.288422 8.9941406 13.982422 C 9.4531406 13.675422 9.5774844 13.055703 9.2714844 12.595703 L 8.1972656 10.982422 L 9.2714844 9.3691406 C 9.5784844 8.9091406 9.4541406 8.2884219 8.9941406 7.9824219 C 8.8791406 7.9056719 8.7545625 7.8563906 8.6269531 7.8320312 z M 13.363281 7.8320312 C 13.235672 7.8562656 13.109141 7.9059219 12.994141 7.9824219 C 12.535141 8.2894219 12.41275 8.9091406 12.71875 9.3691406 L 13.792969 10.982422 L 12.71875 12.595703 C 12.41175 13.055703 12.534141 13.676422 12.994141 13.982422 C 13.454141 14.289422 14.075812 14.164125 14.382812 13.703125 L 15.826172 11.535156 C 16.050172 11.199156 16.050172 10.763734 15.826172 10.427734 L 14.382812 8.2597656 C 14.152562 7.9155156 13.746109 7.7593281 13.363281 7.8320312 z"/></svg>