<?xml version="1.0"?><svg fill="#000000" xmlns="http://www.w3.org/2000/svg"  viewBox="0 0 24 24" width="24px" height="24px">    <path d="M 3 2 C 1.895 2 1 2.895 1 4 L 1 16 C 1 17.105 1.895 18 3 18 L 10 18 L 10 20 L 9 20 C 8.448 20 8 20.448 8 21 C 8 21.552 8.448 22 9 22 L 15 22 C 15.552 22 16 21.552 16 21 C 16 20.448 15.552 20 15 20 L 14 20 L 14 18 L 21 18 C 22.105 18 23 17.105 23 16 L 23 4 C 23 2.895 22.105 2 21 2 L 3 2 z M 3 4 L 21 4 L 21 16 L 3 16 L 3 4 z M 6 6 C 5.448 6 5 6.448 5 7 L 5 13 C 5 13.552 5.448 14 6 14 L 8 14 C 8.552 14 9 13.552 9 13 L 9 7 C 9 6.448 8.552 6 8 6 L 6 6 z M 12 6 C 11.448 6 11 6.448 11 7 L 11 13 C 11 13.552 11.448 14 12 14 L 18 14 C 18.552 14 19 13.552 19 13 L 19 7 C 19 6.448 18.552 6 18 6 L 12 6 z M 7 11 C 7.552 11 8 11.448 8 12 C 8 12.552 7.552 13 7 13 C 6.448 13 6 12.552 6 12 C 6 11.448 6.448 11 7 11 z M 15 11 C 15.552 11 16 11.448 16 12 C 16 12.552 15.552 13 15 13 C 14.448 13 14 12.552 14 12 C 14 11.448 14.448 11 15 11 z"/></svg>