<svg fill="#000000" xmlns="http://www.w3.org/2000/svg"  viewBox="0 0 24 24" width="24px" height="24px"><path d="M 5 3 C 3.9069372 3 3 3.9069372 3 5 L 3 19 C 3 20.093063 3.9069372 21 5 21 L 19 21 C 20.093063 21 21 20.093063 21 19 L 21 5 C 21 3.9069372 20.093063 3 19 3 L 5 3 z M 5 8 L 19 8 L 19 19 L 5 19 L 5 8 z M 8 10 C 7.448 10 7 10.448 7 11 C 7 11.552 7.448 12 8 12 L 11 12 C 11.552 12 12 11.552 12 11 C 12 10.448 11.552 10 11 10 L 8 10 z M 13 13 C 12.448 13 12 13.448 12 14 C 12 14.552 12.448 15 13 15 L 16 15 C 16.552 15 17 14.552 17 14 C 17 13.448 16.552 13 16 13 L 13 13 z M 8 16 C 7.448 16 7 16.448 7 17 C 7 17.552 7.448 18 8 18 L 11 18 C 11.552 18 12 17.552 12 17 C 12 16.448 11.552 16 11 16 L 8 16 z"/></svg>