<?xml version="1.0"?><svg fill="#000000" xmlns="http://www.w3.org/2000/svg"  viewBox="0 0 24 24" width="24px" height="24px">    <path d="M19,3H5C3.897,3,3,3.897,3,5v14c0,1.103,0.897,2,2,2h14c1.103,0,2-0.897,2-2V5C21,3.897,20.103,3,19,3z M10.578,14.652 l-0.021,0.021c-0.308,0.305-0.804,0.304-1.111-0.002L7.35,12.575c-0.307-0.307-0.307-0.806,0-1.113l2.109-2.109 c0.302-0.302,0.789-0.308,1.098-0.015l0.014,0.013c0.326,0.309,0.328,0.828,0.003,1.139L9,12l1.572,1.529 C10.888,13.836,10.89,14.342,10.578,14.652z M13.444,14.634l-0.039-0.041c-0.297-0.316-0.283-0.812,0.032-1.111L15,12l-1.556-1.518 c-0.316-0.309-0.316-0.817-0.001-1.126l0,0c0.308-0.302,0.802-0.299,1.107,0.006l2.1,2.1c0.307,0.307,0.307,0.806,0,1.113 l-2.077,2.077C14.26,14.965,13.748,14.957,13.444,14.634z"/></svg>