<?xml version="1.0"?><svg fill="#000000" xmlns="http://www.w3.org/2000/svg"  viewBox="0 0 24 24" width="24px" height="24px">    <path d="M 3 2 C 1.895 2 1 2.895 1 4 L 1 16 C 1 17.105 1.895 18 3 18 L 10 18 L 10 20 L 9 20 C 8.448 20 8 20.448 8 21 C 8 21.552 8.448 22 9 22 L 15 22 C 15.552 22 16 21.552 16 21 C 16 20.448 15.552 20 15 20 L 14 20 L 14 18 L 21 18 C 22.105 18 23 17.105 23 16 L 23 4 C 23 2.895 22.105 2 21 2 L 3 2 z M 3 4 L 21 4 L 21 16 L 3 16 L 3 4 z M 12.703125 5.9863281 C 12.414375 6.0314688 12.166797 6.245375 12.091797 6.546875 L 10.455078 13.091797 C 10.354078 13.492797 10.598 13.899 11 14 C 11.402 14.101 11.808203 13.855125 11.908203 13.453125 L 13.544922 6.9082031 C 13.645922 6.5072031 13.402 6.101 13 6 C 12.8995 5.97475 12.799375 5.9712812 12.703125 5.9863281 z M 8 7 C 7.81375 7 7.6283281 7.0708906 7.4863281 7.2128906 L 5.2128906 9.484375 C 4.9288906 9.768375 4.9288906 10.229672 5.2128906 10.513672 L 7.484375 12.785156 C 7.768375 13.069156 8.2296719 13.069156 8.5136719 12.785156 C 8.7976719 12.501156 8.7976719 12.041812 8.5136719 11.757812 L 6.7578125 10 L 8.5136719 8.2421875 C 8.7986719 7.9571875 8.799625 7.4968906 8.515625 7.2128906 C 8.373625 7.0708906 8.18625 7 8 7 z M 15.994141 7 C 15.807891 7 15.620516 7.0708906 15.478516 7.2128906 C 15.194516 7.4968906 15.194516 7.9571875 15.478516 8.2421875 L 17.236328 10 L 15.478516 11.757812 C 15.194516 12.041813 15.194516 12.501156 15.478516 12.785156 C 15.762516 13.069156 16.223813 13.069156 16.507812 12.785156 L 18.779297 10.513672 C 19.063297 10.229672 19.063297 9.768375 18.779297 9.484375 L 16.507812 7.2128906 C 16.365813 7.0708906 16.180391 7 15.994141 7 z"/></svg>