<?xml version="1.0"?><svg fill="#000000" xmlns="http://www.w3.org/2000/svg"  viewBox="0 0 24 24" width="24px" height="24px">    <path d="M 18.5 2 C 18.224 2 18 2.224 18 2.5 L 18 5.5 C 18 5.776 18.224 6 18.5 6 L 21.5 6 C 21.776 6 22 5.776 22 5.5 L 22 2.5 C 22 2.224 21.776 2 21.5 2 L 18.5 2 z M 12.359375 3.203125 C 12.23325 3.224125 12.115156 3.29425 12.035156 3.40625 L 10.291016 5.8476562 C 10.130016 6.0716563 10.18125 6.3839219 10.40625 6.5449219 L 12.847656 8.2871094 C 13.071656 8.4481094 13.383922 8.396875 13.544922 8.171875 L 15.289062 5.7304688 C 15.450063 5.5064688 15.398828 5.1942031 15.173828 5.0332031 L 12.732422 3.2890625 C 12.619922 3.2090625 12.4855 3.182125 12.359375 3.203125 z M 2.5 8 C 2.224 8 2 8.224 2 8.5 L 2 11.5 C 2 11.776 2.224 12 2.5 12 L 5.5 12 C 5.776 12 6 11.776 6 11.5 L 6 8.5 C 6 8.224 5.776 8 5.5 8 L 2.5 8 z M 16.753906 9.8007812 C 16.627031 9.7834062 16.492812 9.8129844 16.382812 9.8964844 L 13.992188 11.710938 C 13.772188 11.877938 13.729484 12.190156 13.896484 12.410156 L 15.710938 14.800781 C 15.877937 15.020781 16.190156 15.063484 16.410156 14.896484 L 18.800781 13.083984 C 19.020781 12.916984 19.063484 12.602813 18.896484 12.382812 L 17.083984 9.9921875 C 17.000484 9.8821875 16.880781 9.8181563 16.753906 9.8007812 z M 2.5 13 C 2.224 13 2 13.224 2 13.5 L 2 16.5 C 2 16.776 2.224 17 2.5 17 L 5.5 17 C 5.776 17 6 16.776 6 16.5 L 6 13.5 C 6 13.224 5.776 13 5.5 13 L 2.5 13 z M 7.5 13 C 7.224 13 7 13.224 7 13.5 L 7 16.5 C 7 16.776 7.224 17 7.5 17 L 10.5 17 C 10.776 17 11 16.776 11 16.5 L 11 13.5 C 11 13.224 10.776 13 10.5 13 L 7.5 13 z M 2.5 18 C 2.224 18 2 18.224 2 18.5 L 2 21.5 C 2 21.776 2.224 22 2.5 22 L 5.5 22 C 5.776 22 6 21.776 6 21.5 L 6 18.5 C 6 18.224 5.776 18 5.5 18 L 2.5 18 z M 7.5 18 C 7.224 18 7 18.224 7 18.5 L 7 21.5 C 7 21.776 7.224 22 7.5 22 L 10.5 22 C 10.776 22 11 21.776 11 21.5 L 11 18.5 C 11 18.224 10.776 18 10.5 18 L 7.5 18 z M 12.5 18 C 12.224 18 12 18.224 12 18.5 L 12 21.5 C 12 21.776 12.224 22 12.5 22 L 15.5 22 C 15.776 22 16 21.776 16 21.5 L 16 18.5 C 16 18.224 15.776 18 15.5 18 L 12.5 18 z"/></svg>