<svg fill="#000000" xmlns="http://www.w3.org/2000/svg"  viewBox="0 0 24 24" width="24px" height="24px"><path d="M 4 3 A 1.0001 1.0001 0 1 0 4 5 L 11 5 L 11 14 L 9.5996094 14 C 9.2766094 14 8.9853281 14.195141 8.8613281 14.494141 C 8.8203281 14.593141 8.8007812 14.697781 8.8007812 14.800781 C 8.8007812 15.008781 8.8811563 15.211234 9.0351562 15.365234 L 11.435547 17.765625 C 11.747547 18.078625 12.253406 18.078625 12.566406 17.765625 L 14.966797 15.365234 C 15.194797 15.136234 15.261672 14.794141 15.138672 14.494141 C 15.014672 14.195141 14.723391 14 14.400391 14 L 13 14 L 13 5 C 13 3.9069372 12.093063 3 11 3 L 4 3 z M 4 19 A 1.0001 1.0001 0 1 0 4 21 L 9 21 A 1.0001 1.0001 0 1 0 9 19 L 4 19 z M 15 19 A 1.0001 1.0001 0 1 0 15 21 L 20 21 A 1.0001 1.0001 0 1 0 20 19 L 15 19 z"/></svg>