<svg fill="#000000" xmlns="http://www.w3.org/2000/svg"  viewBox="0 0 24 24" width="24px" height="24px"><path d="M 18.724609 2.8046875 C 18.646687 2.8120469 18.569141 2.8305781 18.494141 2.8613281 C 18.195141 2.9853281 18 3.2766094 18 3.5996094 L 18 5 L 13 5 C 11.906937 5 11 5.9069372 11 7 L 11 17 A 1.0001 1.0001 0 1 0 13 17 L 13 7 L 18 7 L 18 8.4003906 C 18 8.7233906 18.195141 9.0146719 18.494141 9.1386719 C 18.593141 9.1796719 18.697781 9.1992188 18.800781 9.1992188 C 19.008781 9.1992188 19.212234 9.1188437 19.365234 8.9648438 L 21.765625 6.5644531 C 22.078625 6.2524531 22.078625 5.7465937 21.765625 5.4335938 L 19.365234 3.0332031 C 19.193484 2.8622031 18.958375 2.7826094 18.724609 2.8046875 z M 4 19 A 1.0001 1.0001 0 1 0 4 21 L 9 21 A 1.0001 1.0001 0 1 0 9 19 L 4 19 z M 15 19 A 1.0001 1.0001 0 1 0 15 21 L 20 21 A 1.0001 1.0001 0 1 0 20 19 L 15 19 z"/></svg>