<svg fill="#000000" xmlns="http://www.w3.org/2000/svg"  viewBox="0 0 24 24" width="24px" height="24px"><path d="M 5 3 C 3.9069372 3 3 3.9069372 3 5 L 3 17 A 1.0001 1.0001 0 1 0 5 17 L 5 5 L 18 5 L 18 14 L 16.599609 14 C 16.276609 14 15.985328 14.195141 15.861328 14.494141 C 15.820328 14.593141 15.800781 14.697781 15.800781 14.800781 C 15.800781 15.008781 15.881156 15.211234 16.035156 15.365234 L 18.435547 17.765625 C 18.747547 18.078625 19.253406 18.078625 19.566406 17.765625 L 21.966797 15.365234 C 22.194797 15.136234 22.261672 14.794141 22.138672 14.494141 C 22.014672 14.195141 21.723391 14 21.400391 14 L 20 14 L 20 5 C 20 3.9069372 19.093063 3 18 3 L 5 3 z M 9 19 A 1.0001 1.0001 0 1 0 9 21 L 14 21 A 1.0001 1.0001 0 1 0 14 19 L 9 19 z"/></svg>