<svg fill="#000000" xmlns="http://www.w3.org/2000/svg"  viewBox="0 0 24 24" width="24px" height="24px"><path d="M 5 3 C 3.9069372 3 3 3.9069372 3 5 L 3 19 C 3 20.093063 3.9069372 21 5 21 L 19 21 C 20.093063 21 21 20.093063 21 19 L 21 5 C 21 3.9069372 20.093063 3 19 3 L 5 3 z M 5 8 L 19 8 L 19 19 L 5 19 L 5 8 z M 8 10 C 7.448 10 7 10.448 7 11 C 7 11.552 7.448 12 8 12 L 16 12 C 16.552 12 17 11.552 17 11 C 17 10.448 16.552 10 16 10 L 8 10 z M 8 13 C 7.448 13 7 13.448 7 14 L 7 17 C 7 17.552 7.448 18 8 18 L 10 18 C 10.552 18 11 17.552 11 17 L 11 14 C 11 13.448 10.552 13 10 13 L 8 13 z M 14 13 C 13.448 13 13 13.448 13 14 L 13 17 C 13 17.552 13.448 18 14 18 L 16 18 C 16.552 18 17 17.552 17 17 L 17 14 C 17 13.448 16.552 13 16 13 L 14 13 z"/></svg>