<svg fill="#000000" xmlns="http://www.w3.org/2000/svg"  viewBox="0 0 24 24" width="24px" height="24px"><path d="M 5 3 C 3.9069372 3 3 3.9069372 3 5 L 3 19 C 3 20.093063 3.9069372 21 5 21 L 19 21 C 20.093063 21 21 20.093063 21 19 L 21 5 C 21 3.9069372 20.093063 3 19 3 L 5 3 z M 5 8 L 19 8 L 19 19 L 5 19 L 5 8 z M 7.1699219 11 C 6.7869219 11 6.4635781 11.270484 6.3925781 11.646484 C 6.2975781 12.143484 6.1953125 12.929 6.1953125 14 C 6.1953125 15.071 6.2975781 15.856516 6.3925781 16.353516 C 6.4635781 16.729516 6.7869219 17 7.1699219 17 L 7.2128906 17 C 7.7038906 17 8.0662344 16.559219 7.9902344 16.074219 C 7.9122344 15.580219 7.8417969 14.889 7.8417969 14 C 7.8417969 13.111 7.9112813 12.419781 7.9882812 11.925781 C 8.0652813 11.440781 7.7028906 11 7.2128906 11 L 7.1699219 11 z M 16.787109 11 C 16.296109 11 15.933766 11.440781 16.009766 11.925781 C 16.087766 12.419781 16.15625 13.111 16.15625 14 C 16.15625 14.889 16.086766 15.580219 16.009766 16.074219 C 15.933766 16.559219 16.297109 17 16.787109 17 L 16.830078 17 C 17.213078 17 17.536422 16.729516 17.607422 16.353516 C 17.702422 15.856516 17.804688 15.071 17.804688 14 C 17.804688 12.929 17.702422 12.143484 17.607422 11.646484 C 17.536422 11.270484 17.213078 11 16.830078 11 L 16.787109 11 z M 10.660156 11.003906 C 10.565125 11.013547 10.471813 11.041594 10.382812 11.089844 C 10.026813 11.283844 9.8957969 11.726125 10.091797 12.078125 L 11.160156 14 L 10.091797 15.921875 C 9.8957969 16.273875 10.024859 16.716156 10.380859 16.910156 C 10.737859 17.103156 11.185859 16.975047 11.380859 16.623047 L 12 15.509766 L 12.619141 16.623047 C 12.814141 16.975047 13.262141 17.103156 13.619141 16.910156 C 13.975141 16.716156 14.104203 16.273875 13.908203 15.921875 L 12.839844 14 L 13.908203 12.078125 C 14.104203 11.726125 13.973187 11.283844 13.617188 11.089844 C 13.261188 10.896844 12.815141 11.024953 12.619141 11.376953 L 12 12.490234 L 11.380859 11.376953 C 11.233859 11.112953 10.94525 10.974984 10.660156 11.003906 z"/></svg>